<?xml version="1.0" encoding="UTF-8"?>
<svg width="45px" height="52px" viewBox="0 0 45 52" version="1.1" xmlns="http://www.w3.org/2000/svg" xmlns:xlink="http://www.w3.org/1999/xlink">
    <!-- Generator: Sketch 63.1 (92452) - https://sketch.com -->
    <title>logo</title>
    <desc>Created with Sketch.</desc>
    <g id="Gämsle" stroke="none" stroke-width="1" fill="none" fill-rule="evenodd">
        <g id="SAC-Login" transform="translate(-731.000000, -435.000000)" fill-rule="nonzero">
            <g id="button_outline_bg" transform="translate(716.000000, 427.000000)">
                <g id="logo" transform="translate(15.000000, 8.000000)">
                    <path d="M44.9777778,27.5318807 C44.9426328,26.6952004 44.5719022,25.9064857 43.9469776,25.3392436 C42.9414351,24.374858 41.8297608,23.524201 40.6326299,22.8030932 L40.7216059,22.7153877 C41.0508801,22.3815353 41.2299351,21.9310689 41.2183872,21.4655845 C41.2003451,20.8447579 40.9821937,20.2457269 40.5955567,19.7553274 C39.5928733,18.4370798 38.4438883,17.2334057 37.1699895,16.1667112 L38.6529191,13.974074 C38.7397905,13.8465545 38.7862457,13.6964584 38.7863828,13.5428553 C38.785728,13.4339593 38.7603953,13.3265836 38.7122363,13.2285773 L39.9727263,10.8605292 C40.1576922,10.5103377 40.0459144,10.0790538 39.7132137,9.85922482 C39.3817753,9.63833067 38.9348877,9.69811384 38.675163,9.99809185 L36.9030622,12.0372445 C36.6358388,12.0324581 36.3844617,12.1618586 36.2357439,12.3807576 L34.8269607,14.4345278 C32.6657082,13.0294329 30.275524,12.0009743 27.7608015,11.3940709 C27.1359139,10.9277624 26.4500497,10.5467035 25.7217733,10.2612083 C25.6402121,9.99809185 25.558651,9.74959297 25.4696753,9.53032924 C25.5772725,9.36947475 25.7015155,9.22006225 25.8404076,9.08449302 C26.6965554,8.31257817 27.1881582,7.22424986 27.1972883,6.08058003 C27.2374389,5.26086152 26.8795642,4.47120945 26.2333841,3.95372194 L26.085091,3.84409007 C25.9020946,3.70554175 25.6665775,3.65326029 25.4409959,3.7011101 C25.2154144,3.74895994 25.0225605,3.89210644 24.9135767,4.09258897 L24.8246009,4.26069114 C24.3983501,5.11160162 23.773199,5.85057179 23.0005975,6.4167844 L22.7336702,6.29253496 L22.4964015,6.18290311 C22.4593283,5.75899323 22.4296697,5.33508338 22.4296697,4.94040867 C22.3806197,4.06586296 22.5222032,3.19110719 22.8448899,2.37502314 C23.0005975,2.09728909 23.1414759,2.03150998 23.1637198,2.02420119 C23.1859637,2.0168924 23.3120127,2.09728909 23.4454764,2.36040556 L23.4454764,2.4115671 C23.6595321,2.77735027 24.0970837,2.95461458 24.5102209,2.84292458 C24.9233581,2.7312346 25.2079488,2.35874195 25.2027479,1.9364957 C25.2044927,1.84741485 25.1919814,1.75861968 25.1656747,1.67337923 L25.1656747,1.6222177 C24.9428401,0.986955007 24.4772919,0.462495818 23.8681113,0.160459558 C23.301718,-0.0700869583 22.6624418,-0.0514749524 22.1108398,0.211621092 C21.8356659,0.322776213 21.584143,0.483931949 21.369375,0.68669249 C21.027186,0.350111917 20.569593,0.151958395 20.0866409,0.131224395 C19.5653508,0.139498533 19.0867621,0.417002077 18.8261508,0.862103464 C18.5244684,1.38305144 18.3900395,1.98189335 18.4405891,2.57966929 C18.4475454,3.03445435 18.4822095,3.48841692 18.5443942,3.93910436 C18.3169167,3.92651262 18.09509,4.01184325 17.9363931,4.17298565 C17.5301979,4.60824323 17.312096,5.18241869 17.328392,5.77361081 C17.3290669,6.41877691 17.5511945,7.04473445 17.958637,7.54964695 C17.6434553,7.83169818 17.4169977,8.19697474 17.306148,8.60211283 L14.6220455,10.1735028 C14.0824506,10.5114725 13.7425159,11.0862872 13.7100438,11.7156577 L13.7100438,12.0080093 C13.712993,12.1848681 13.7328533,12.3610589 13.769361,12.5342422 C12.4760035,13.063633 11.2349668,13.7095453 10.0620371,14.463763 C9.4320435,13.4993359 8.93345868,12.4574266 8.57910755,11.3648357 C8.49052105,11.0852238 8.24952019,10.8787728 7.95627715,10.831294 C6.59735098,10.5954618 5.29068454,11.4552094 4.99041802,12.7827411 C4.98327413,12.8409994 4.98327413,12.8998938 4.99041802,12.9581521 C4.98890453,13.1893608 5.09223426,13.4091521 5.27217462,13.5574729 C6.20712538,14.3245078 7.03046988,15.2147973 7.71900842,16.2032552 C6.45054482,17.2683048 5.30655927,18.4695006 4.30827042,19.7845626 C3.91749217,20.2760447 3.69662798,20.8779515 3.67802536,21.5021284 C3.66647761,21.9676128 3.84553244,22.4180792 4.17480676,22.7519316 L4.26378252,22.8396371 C3.09261708,23.5681214 2.00605198,24.4210419 1.02358144,25.3830963 C0.410209424,25.9426871 0.0430127545,26.71643 0,27.5391895 C-0.00921593731,28.0057276 0.172570702,28.4563412 0.504556093,28.7889928 L3.47041522,31.7125091 C2.8465627,32.7946051 2.49088566,34.0066765 2.43236452,35.2499638 C2.42326497,35.7100411 2.74993857,36.1104184 3.20777278,36.2003184 C3.665607,36.2902182 4.12299077,36.0437981 4.29344113,35.6154033 L4.29344113,35.6592559 C4.45193726,35.2799538 4.70738487,34.947577 5.03490589,34.6944955 C5.03490589,35.0672439 4.98300337,35.4253748 4.98300337,35.7177263 C4.95516419,36.8795482 5.26935551,38.0244435 5.8875904,39.013991 C6.04437941,39.3461628 6.3834422,39.5575511 6.75510418,39.5548415 C7.28866649,39.5548569 7.72235007,39.1306281 7.72642307,38.6046986 C7.72642307,36.8286625 8.93501066,35.0380087 10.0472078,33.737044 C10.5495844,36.680275 11.4889659,39.5345285 12.8351154,42.2079324 C13.2727791,43.0234092 13.7683217,43.8073999 14.318045,44.5540542 L13.8731661,45.2118454 C13.8105041,45.3039698 13.7699348,45.408944 13.7545317,45.5188146 C13.7023002,45.555056 13.6404251,45.5753867 13.5765802,45.5772849 C13.1836038,45.5772849 12.3828219,45.0729784 11.3076979,43.6258378 C10.5067003,42.4223735 10.0131643,41.0456568 9.86925628,39.6133118 C9.85394327,39.2111819 9.52884757,38.8875588 9.12106389,38.8685086 C8.71328021,38.8494582 8.35859194,39.1413241 8.30476558,39.5402238 C7.87471601,42.0983006 9.0833036,46.1839147 11.8341379,48.6104331 C13.7118661,50.3317502 16.0949467,51.4218359 18.6407846,51.7239779 C18.8629616,51.7468317 19.0845081,51.6754135 19.2500543,51.5275725 C19.4156005,51.3797319 19.5095048,51.1694373 19.5082984,50.9492463 C19.5097948,50.9224676 19.5097948,50.895628 19.5082984,50.8688496 L19.4489812,50.2695287 C19.4158949,49.9375615 19.1709615,49.6637371 18.8409801,49.5898112 C17.8834266,49.3598719 16.9797089,48.9504443 16.1791215,48.3838606 C15.8009745,48.0768914 15.6081937,47.9160981 15.6081937,47.6529816 C15.6397177,47.4217941 15.7317051,47.202665 15.875121,47.0171169 C16.0074033,46.9623709 16.1207318,46.8709711 16.2013655,46.7540004 C17.8882276,48.3537101 19.9722469,49.4879675 22.2443035,50.0429562 L22.2813767,50.0429562 C22.4056182,50.0727135 22.5352822,50.0727135 22.6595237,50.0429562 L22.696597,50.0429562 C24.8217672,49.5207879 26.7830333,48.488876 28.4058759,47.0390432 C28.465193,47.0390432 28.5319249,47.0390432 28.591242,47.0390432 L28.9249011,46.9951903 L30.5338798,49.3340035 C30.6825976,49.5529025 30.9339747,49.682303 31.2011981,49.6775167 L32.9732989,51.7166693 C33.2305365,52.0256889 33.6840566,52.0910583 34.020287,51.8675797 C34.3565175,51.6441011 34.465058,51.2051531 34.2708622,50.8542319 L33.0103722,48.4861838 C33.1228089,48.2484075 33.0973408,47.9694705 32.9436403,47.7553045 L31.8685164,46.1912235 C32.6099812,45.3507124 33.7295929,43.2677072 34.0929106,37.3622042 C34.449736,36.1596183 34.7442314,34.9399085 34.9752538,33.7078088 C36.0874508,35.0087736 37.2812093,36.814045 37.2960384,38.6046986 C37.2924606,38.64604 37.2924606,38.6876067 37.2960384,38.7289481 C37.3656867,39.1246426 37.6784538,39.4354398 38.0793048,39.5072812 C38.4801559,39.5791226 38.8838909,39.3967388 39.0903834,39.050535 C39.735465,38.0466588 40.0632344,36.8764118 40.0320435,35.6884911 C40.0320435,35.3815219 40.0320435,35.0380087 39.9727263,34.6652606 C40.3012296,34.9173879 40.5568924,35.2500448 40.7141912,35.6300208 C40.9176263,36.0140426 41.3573105,36.2155623 41.7863051,36.1214011 C42.2152994,36.0272397 42.5266975,35.6608627 42.5456091,35.2280375 C42.4840618,33.9852455 42.1285838,32.7738525 41.5075584,31.6905828 L44.4734175,28.7670665 C44.8024139,28.4384461 44.9840258,27.9935315 44.9777778,27.5318807 Z" id="Shape" fill="#FFFFFF"></path>
                    <path d="M33.4099471,25.0812199 C33.0729508,24.8671024 32.7303378,24.660915 32.3877249,24.4705882 C32.6011558,26.6276252 32.9156858,29.3715032 33.0448678,31.6078431 C33.2492728,29.4431059 33.3711418,27.2644237 33.4099471,25.0812199 Z" id="Shape" fill="#E3000F"></path>
                    <path d="M28.9843294,23.7411741 C28.5762845,23.6323515 28.1682396,23.5380385 27.7601948,23.4509804 C26.3059527,25.0452448 24.2433955,25.9542871 22.0803562,25.9542871 C19.9173168,25.9542871 17.8547597,25.0452448 16.4005176,23.4509804 C14.8740307,23.782779 13.3794965,24.2464255 11.9338838,24.8366556 L11.9338838,24.909204 L16.0361918,24.909204 L11.9776029,25.4242979 C11.9691988,25.4782783 11.9570251,25.53161 11.9411703,25.5839046 L18.7904946,30.3575918 L11.6642828,26.0046853 L11.5331255,26.1135082 L12.9904285,31.0250373 L11.0084964,26.2948791 L10.9210582,26.2948791 C11.4748333,38.4757621 15.387692,46.1151126 22.0402804,47.9215686 C25.2026279,47.0582421 27.7456216,44.8745341 29.6036832,41.5155416 C30.1551694,38.9880379 30.3998048,36.4037393 30.3323346,33.8181522 C30.3687671,29.1460329 29.8441382,25.3807688 28.9843294,23.7411741 Z M29.0863405,37.1989094 C27.5372664,37.4120858 25.9784181,37.5476803 24.4156843,37.6051806 L24.4156843,42.2555356 C23.6870328,42.2555356 22.8782296,42.3063195 22.0839994,42.3063195 C21.2897693,42.3063195 20.5028257,42.3063195 19.7450281,42.2555356 L19.7450281,37.6051806 C18.0618431,37.539887 16.4806693,37.3947903 15.0743718,37.1989094 L15.0743718,32.5485545 C16.6234569,32.761634 18.1823003,32.8972282 19.7450281,32.9548258 L19.7450281,28.3044709 C20.5076833,28.3334902 21.2873404,28.348 22.0839994,28.348 C22.8806584,28.348 23.6578867,28.3334902 24.4156843,28.3044709 L24.4156843,32.9548258 C26.0988693,32.8895322 27.6800432,32.7444353 29.0863405,32.5485545 L29.0863405,37.1989094 Z" id="Shape" fill="#E3000F"></path>
                    <path d="M35.7325912,19.615648 C35.0209175,20.3814953 36.0754886,21.2162688 35.7325912,21.5991924 C35.5773169,21.7676788 35.4026335,21.5991924 35.2538291,21.4230475 C35.0857571,21.2058133 34.9657311,20.9427045 34.9044618,20.6572003 L34.4321693,21.0630993 C34.5464113,21.340634 34.692261,21.5983162 34.8656432,21.8289466 C35.2538291,22.3420642 35.7714098,22.7020124 36.2760511,22.1659193 C36.9812552,21.4000721 35.9396236,20.5576401 36.2760511,20.2206674 C36.4442649,20.0445225 36.6512973,20.2895936 36.767753,20.4427631 C36.9027779,20.6165627 37.0043193,20.8229895 37.0653621,21.0477824 L37.498836,20.6648588 C37.4034726,20.4189038 37.2769313,20.1916344 37.1235898,19.9909132 C36.741874,19.500771 36.2048837,19.0948719 35.7325912,19.615648 Z" id="Shape" fill="#1A1A18"></path>
                    <path d="M42.8367791,26.3950914 C41.6501967,25.2147876 40.3109016,24.2005442 38.8550123,23.3797135 L39.639633,22.5908493 C40.0576084,22.1706133 39.9696136,21.3596315 39.4343117,20.6223752 C38.3432986,19.150248 37.0692275,17.8246882 35.6432003,16.6780545 L37.4984249,13.9133437 L37.3371011,13.5742058 L38.7596844,10.8389852 L36.7578017,13.1908325 L36.3984894,13.1908325 L34.5872621,15.8744452 C32.3151602,14.2617025 29.7560353,13.102867 27.0490365,12.4609489 C26.3524843,11.9015918 25.5664509,11.4653149 24.724506,11.1707505 C24.5930212,10.6884955 24.436369,10.2135364 24.2552001,9.747846 C24.4122322,9.39992286 24.6394682,9.08860803 24.9224944,8.83364831 C25.3097401,8.48243359 25.6109102,8.04589862 25.8024429,7.55819504 C25.9535033,7.17553717 26.033052,6.76814352 26.0370959,6.35646742 C26.0674423,5.79754316 25.8435146,5.25504011 25.4284647,4.88195498 L25.2818067,4.77136655 L25.1938118,4.94093548 C24.7007144,5.95443837 23.9587148,6.82478628 23.037938,7.46972429 C22.7666206,7.64666579 22.5393005,7.54344993 22.0846605,7.30752793 C21.8844569,7.20316162 21.6788416,7.10964212 21.4686965,7.02737057 C21.2707081,5.36854409 21.3147055,3.28210899 21.8646733,2.28681308 C22.4146411,1.29151719 23.3312542,1.30626232 23.8372246,2.28681308 C23.8635457,2.33571425 23.9139272,2.36666942 23.9692168,2.36791127 C24.0542637,2.36791127 24.1232078,2.29859429 24.1232078,2.21308746 L24.1232078,2.17622465 C24.0299465,1.75153557 23.7549626,1.38990358 23.3717994,1.18804592 C22.9886363,0.98618827 22.5363821,0.964697344 22.1359908,1.12932082 C21.7168549,1.34402275 21.379384,1.69108893 21.1753803,2.11724415 C20.4054254,0.98186958 19.7087995,0.856536022 19.2614924,1.48320381 C18.8141852,2.10987159 18.9535104,3.86454139 19.5474756,6.48917353 C19.0085647,6.07921502 18.5779896,5.54251567 18.293549,4.92619034 C17.6409206,5.61183863 17.8022445,7.137959 18.9241788,7.87521522 L18.6455284,8.1111372 C18.1512173,8.3493061 17.8172602,8.83056665 17.7655799,9.37921789 L14.8324183,11.1191426 C14.5161765,11.336313 14.3225879,11.692688 14.3117821,12.0775757 C14.3080823,12.1487952 14.3080823,12.2201604 14.3117821,12.29138 C14.2973469,12.5863364 14.37699,12.8782183 14.5391021,13.1244795 L14.5391021,13.2424405 C12.834392,13.9132636 11.2206402,14.7975768 9.73604988,15.8744452 L9.45006661,15.4468366 C8.71401842,14.3497485 8.13630906,13.1533303 7.73416705,11.8932616 C6.80692874,11.7416572 5.92282388,12.3428675 5.7176184,13.2645582 C6.73016402,14.1166776 7.61660101,15.1096927 8.350131,16.213583 L8.67277878,16.6927996 C7.24955063,17.8401501 5.97799186,19.1656599 4.88900025,20.6371203 C4.34636534,21.3743766 4.26570338,22.1853584 4.68367891,22.6055945 L5.46829966,23.3944586 C4.0125078,24.2154396 2.67323195,25.2296684 1.48653271,26.4098366 C0.694579065,27.2134459 0.459926132,28.2308594 0.965896519,28.7395662 L4.25837048,32.094082 C3.54558736,33.1968386 3.1310894,34.4673863 3.05577419,35.7803631 C3.05377526,35.8285547 3.07143072,35.8754781 3.10465431,35.9102734 C3.13787794,35.9450685 3.1837898,35.9647191 3.23176391,35.964677 C3.30465065,35.9627519 3.36880898,35.9158389 3.39308779,35.846716 C3.7524001,35.1094599 4.08238078,34.6228707 5.82761198,33.6349474 C5.66802624,34.5011977 5.57730037,35.3788487 5.55629452,36.2595795 C5.52493956,37.3176066 5.81111943,38.3606193 6.37757978,39.2528398 C6.40454886,39.3134753 6.46556349,39.3514505 6.53157076,39.3486832 C6.57950323,39.3506929 6.62617429,39.332942 6.66078221,39.2995387 C6.69539013,39.2661353 6.71493503,39.2199753 6.71489338,39.1717417 C6.71489338,36.5176192 8.91476462,33.9298499 10.2420203,32.6101613 L10.2933506,32.5511808 C10.7229972,35.9889605 11.7140356,39.3318761 13.2265122,42.4451593 C13.7166858,43.3999708 14.2883527,44.3102109 14.9350789,45.1656348 L14.2017885,46.2715191 L14.2677846,46.4042252 C13.2998413,47.753404 11.7819301,46.5811667 10.4033442,44.7011632 C9.56436942,43.3683075 9.06099532,41.850018 8.93676334,40.277626 C8.57011813,42.4893946 9.67005374,46.4337154 12.177907,48.7118372 C13.9156987,50.3337776 16.1166608,51.3654165 18.4695387,51.6608619 L18.4108755,51.056312 C17.3545817,50.800595 16.3581827,50.3397727 15.4777138,49.6997605 C14.4437744,48.8371707 14.3557795,48.3137189 15.1990635,47.0382656 L15.3457216,47.0382656 L15.8736906,46.2494014 C17.5449881,48.1152729 19.733789,49.4351427 22.1579895,50.0388983 L22.2313186,50.0388983 C24.3358589,49.5168084 26.2675065,48.4491649 27.8336573,46.9424222 C27.9690595,46.9847385 28.1098499,47.0070886 28.251633,47.0087752 C28.3703073,47.0084024 28.4884981,46.9935487 28.6036122,46.9645399 C28.7187265,46.9935487 28.8369173,47.0084024 28.9555917,47.0087752 L29.0215879,47.0087752 L30.8181493,49.6776429 L31.1774616,49.6776429 L33.128014,52 L31.7347624,49.235289 L31.8960862,48.8961512 L30.4295053,46.7359906 C32.1087405,45.6669689 32.6953728,41.2581768 32.8860282,37.8373078 C33.3888679,36.0995386 33.7686846,34.3281513 34.0226285,32.5364356 L34.0739588,32.6027888 C35.4012145,33.9151047 37.5644211,36.5176192 37.6010855,39.1791142 C37.603067,39.2621197 37.6621867,39.3325756 37.7432327,39.3485182 C37.8242785,39.3644607 37.9054495,39.3216013 37.9383992,39.2454674 C38.5062838,38.3511523 38.7925233,37.3053532 38.7596844,36.2448346 C38.7390527,35.3640796 38.6483238,34.4863985 38.4883669,33.6202022 C40.2335983,34.6302435 40.5635789,35.0947147 40.9228912,35.8319711 C40.9583832,35.9032353 41.0354124,35.9434914 41.1138178,35.9317509 C41.1922232,35.9200104 41.2542415,35.8589328 41.2675376,35.7803631 C41.1872728,34.4683341 40.7731782,33.1990223 40.0649415,32.094082 L43.3794141,28.7543114 C43.8633857,28.2234869 43.6360657,27.1987007 42.8367791,26.3950914 Z M27.7383294,12.9696557 C32.3109765,14.2327333 36.3339417,16.9932108 39.170327,20.8140618 C39.6103013,21.4112394 39.7056292,22.0600249 39.4123131,22.3622999 C39.4162843,22.3058474 39.4162843,22.2491834 39.4123131,22.192731 C39.3856578,21.8134342 39.2507123,21.4499267 39.0236691,21.1458271 C39.0094124,21.1317771 38.9865955,21.1317771 38.9723388,21.1458271 C38.9583644,21.160161 38.9583644,21.1831012 38.9723388,21.1974351 C39.2069918,21.602926 39.40498,22.3328096 39.1189967,22.6719475 L39.0383349,22.7604183 C39.0422818,22.7039649 39.0422818,22.6473026 39.0383349,22.5908493 C39.0125079,22.2113722 38.8774775,21.8476357 38.649691,21.5439455 C38.884344,21.9494364 39.0823322,22.6793201 38.7963489,23.0184579 L38.7156871,23.0995561 C38.7200622,23.0431187 38.7200622,22.9864246 38.7156871,22.9299872 C38.6886228,22.5507799 38.5537189,22.1873848 38.3270432,21.8830834 C38.3127865,21.8690334 38.2899695,21.8690334 38.2757128,21.8830834 C38.2617385,21.8974172 38.2617385,21.9203574 38.2757128,21.9346913 C38.5103658,22.3401822 38.7083541,23.0700659 38.422371,23.4092037 L38.341709,23.4903019 C38.3459969,23.4338611 38.3459969,23.3771738 38.341709,23.320733 C38.3154662,22.9413463 38.1804785,22.577725 37.953065,22.2738291 C37.9390907,22.288163 37.9390907,22.3111032 37.953065,22.3254371 C38.187718,22.730928 38.3857063,23.4608117 38.0997232,23.7999495 L38.0190612,23.8810477 C38.0234362,23.8246103 38.0234362,23.7679162 38.0190612,23.7114788 C37.9928184,23.3320921 37.8578307,22.9684708 37.6304172,22.664575 C37.6238679,22.6527221 37.6115263,22.6452827 37.5980421,22.6450589 C37.5845577,22.6448352 37.5719787,22.6518612 37.5650439,22.6634903 C37.5581091,22.6751195 37.5578717,22.6895849 37.5644211,22.7014378 C37.799074,23.1069287 37.9970626,23.8368123 37.7110792,24.1759502 L37.6304172,24.2570484 C37.6346769,24.2006065 37.6346769,24.1439213 37.6304172,24.0874794 C37.6041744,23.7080928 37.4691867,23.3444714 37.2417732,23.0405756 C37.2275165,23.0265256 37.2046999,23.0265256 37.1904429,23.0405756 C37.1764686,23.0549095 37.1764686,23.0778497 37.1904429,23.0921835 C37.4250959,23.4976745 37.6230844,24.2275581 37.3371011,24.566696 L37.2564391,24.6477942 C37.2604106,24.5913417 37.2604106,24.5346777 37.2564391,24.4782252 C37.2301963,24.0988386 37.0952086,23.7352172 36.8677951,23.4313214 C37.1024481,23.8368123 37.3004366,24.566696 37.0144533,24.9058339 L36.9337913,24.986932 C36.9384171,24.9305047 36.9384171,24.8737904 36.9337913,24.8173631 C36.9075485,24.4379764 36.7725608,24.0743551 36.5451476,23.7704593 C36.5308906,23.7564093 36.5080739,23.7564093 36.4938172,23.7704593 C36.4798426,23.7847931 36.4798426,23.8077334 36.4938172,23.8220672 C36.72847,24.2275581 36.9264585,24.9574418 36.6404752,25.2965796 C36.6252459,24.9004154 36.4980665,24.5168136 36.2738301,24.1906953 C34.7372933,21.8706818 32.6540352,19.9686407 30.2095182,18.6539011 L30.1728537,18.6539011 C30.1709371,18.3284467 30.148896,18.003427 30.1068575,17.6807229 C30.3041637,17.9301637 30.554789,18.1317484 30.840148,18.2705279 C31.1012905,18.4106422 31.3799969,18.5147924 31.6687662,18.5801755 L31.9254179,18.0124882 C31.6700033,17.9870964 31.4214258,17.914619 31.1921275,17.7986839 C30.8882313,17.6485481 30.6870853,17.3468133 30.6644592,17.0071402 C30.6418334,16.6674671 30.8011646,16.3414601 31.0824349,16.1519229 C31.3637049,15.9623858 31.7241824,15.9381136 32.0280785,16.0882495 C32.2677647,16.2153224 32.4700561,16.4034538 32.6147108,16.6338191 L32.9740231,16.095622 C32.7586877,15.8752274 32.5114674,15.6888093 32.2407326,15.5426799 C31.8813929,15.2939901 31.4323237,15.2145112 31.0101176,15.3248784 C30.5879118,15.4352456 30.2342159,15.7245723 30.0408614,16.1177397 C29.9772159,16.2393175 29.9279927,16.3679899 29.8942034,16.501113 C29.4625449,15.1181301 28.660918,13.8811312 27.5770057,12.9254203 L27.7383294,12.9696557 Z M33.8539717,24.3160289 L34.6532583,24.7805003 C35.0917139,25.1206559 35.6138214,25.3347054 36.1638364,25.3997955 C36.1666427,25.4415257 36.1666427,25.4833989 36.1638364,25.5251291 C35.6133779,25.641479 35.0398547,25.509448 34.5945949,25.1638735 C34.5945949,25.1638735 34.5945949,25.0901479 34.5945949,25.0532851 L34.5945949,24.9500692 L34.4992673,24.9058339 C33.6363009,24.4875013 32.7527714,24.1134769 31.8520889,23.7852044 L33.7953083,21.8314754 C34.4559544,22.4966042 35.0594072,23.2167719 35.5992028,23.9842636 L35.5625383,23.9842636 C35.2655264,23.8082989 34.9568141,23.653108 34.6385924,23.5197922 L35.437879,23.9842636 L35.8191899,24.2054404 L35.8998519,24.3234014 C35.9807254,24.4466524 36.0494895,24.5775165 36.1051733,24.7141472 C35.8021051,24.6012553 35.5100034,24.4605845 35.2325577,24.2939112 C34.9326956,24.1185399 34.6215853,23.963375 34.3012788,23.8294398 C34.2882426,23.8196097 34.2703176,23.8196097 34.2572812,23.8294398 C34.2433069,23.8437736 34.2433069,23.8667139 34.2572812,23.8810477 L35.0565678,24.3455191 C35.3982745,24.5781274 35.7678472,24.7663903 36.1565036,24.9058339 C36.1785881,24.9879003 36.1933129,25.0717915 36.2005009,25.156501 C35.7092328,25.1324778 35.2321976,24.9827567 34.814582,24.7215198 C34.5150467,24.5455387 34.203895,24.3903531 33.8833033,24.2570484 C33.870267,24.2472183 33.8523422,24.2472183 33.8393058,24.2570484 C33.8278536,24.2775065 33.8342912,24.303396 33.8539717,24.3160289 Z M36.0538429,25.7315607 L36.0171784,25.7831688 C35.7605268,26.0412084 35.2472233,26.0043456 34.7045886,25.694698 L34.579929,25.6209724 C34.579929,25.5251291 34.579929,25.4219132 34.579929,25.3260699 C34.9944247,25.649268 35.5178661,25.7973647 36.0391771,25.7389334 L36.0538429,25.7315607 Z M38.6276923,29.6979994 C38.9605562,30.0437959 39.329305,30.3527484 39.7276278,30.6195695 C39.8030622,30.7528787 39.8645004,30.8937152 39.9109505,31.0398057 C39.3124803,30.8277564 38.7652556,30.491114 38.3050445,30.0518821 C38.2907876,30.0378322 38.2679709,30.0378322 38.2537142,30.0518821 C38.2397396,30.0662161 38.2397396,30.0891562 38.2537142,30.1034902 C38.7129106,30.6158228 39.2966061,30.9994363 39.947615,31.2167472 C39.9533369,31.2829754 39.9533369,31.3495779 39.947615,31.4158064 C39.3389839,31.5116497 38.7376858,31.084041 37.9164005,30.4205103 C37.9024262,30.4348442 37.9024262,30.4577844 37.9164005,30.4721184 C38.5396973,31.0471782 39.2363232,31.6885909 39.9696136,31.6074928 C39.9713552,31.6344972 39.9713552,31.6615867 39.9696136,31.6885909 C39.2363232,32.0424739 38.5836948,31.5706302 37.6084186,30.7891385 C37.5941619,30.7750885 37.571345,30.7750885 37.5570883,30.7891385 C37.5431139,30.8034724 37.5431139,30.8264126 37.5570883,30.8407463 C38.1950508,31.4305513 38.9650057,32.1383173 39.7569595,31.9466308 C39.0236691,32.5438083 38.0850574,31.8139247 37.6964134,31.4600417 C37.0955854,30.9416567 36.4557075,30.4708611 35.7825255,30.0518821 C35.4024943,29.7936492 34.9502394,29.6644728 34.4919342,29.6832542 L36.3618249,27.7958782 C37.4356391,28.3946605 38.4225794,29.1388692 39.2949866,30.0076468 C39.3901421,30.1044673 39.4783578,30.2079421 39.558971,30.3172945 C39.2570949,30.1164087 38.9658286,29.8998536 38.6863555,29.668509 C38.6762308,29.6501862 38.6532495,29.6435846 38.6350251,29.6537638 C38.6168008,29.6639433 38.6102347,29.687049 38.6203593,29.7053719 L38.6276923,29.6979994 Z M34.3819408,29.2703907 C34.4454925,28.488899 34.4968228,27.6877473 34.5359318,26.8669354 C35.0639009,27.1028574 35.5625383,27.3461519 36.0025126,27.6041915 L34.3819408,29.2703907 Z M32.4240553,32.8682009 L32.2480657,32.801848 C32.2480657,32.6396517 32.2480657,32.4700826 32.2480657,32.3005138 L32.299396,32.3005138 C32.4460539,32.3521216 32.6220438,32.4184746 32.6293766,32.4922003 C32.6293766,32.6396517 32.6293766,32.7944755 32.6293766,32.9419266 L32.4240553,32.8682009 Z M32.6367097,33.3695353 C32.6367097,33.5243592 32.6367097,33.6718103 32.6367097,33.8266341 L32.4313881,33.7381632 L32.2553985,33.6644378 C32.2553985,33.5022412 32.2553985,33.3326725 32.2553985,33.155731 L32.3067288,33.155731 C32.4680528,33.2294567 32.6293766,33.2958096 32.6293766,33.3695353 L32.6367097,33.3695353 Z M32.3873908,32.0056113 L32.218734,31.9392581 C32.218734,31.7770618 32.218734,31.6074928 32.218734,31.4305513 L32.2700643,31.4305513 C32.4167225,31.4821593 32.5927121,31.5411398 32.6000449,31.6074928 C32.6000449,31.7623166 32.6000449,31.909768 32.6000449,32.0645918 L32.3873908,32.0056113 Z M32.3433933,31.150394 L32.1747365,31.0914135 C32.1747365,30.9218447 32.1747365,30.7522757 32.1747365,30.5827066 L32.2260668,30.5827066 C32.372725,30.6269422 32.5560476,30.6859227 32.5560476,30.7596481 C32.5560476,30.914472 32.5560476,31.0692958 32.5560476,31.2241197 L32.3433933,31.150394 Z M32.2847302,30.2878041 L32.1160733,30.2288236 C32.1160733,30.0592549 32.1160733,29.8896858 32.0794089,29.720117 L32.1234061,29.720117 C32.2627315,29.7569799 32.453387,29.8159604 32.4607198,29.8823134 C32.4607198,30.0371372 32.4607198,30.191961 32.4607198,30.3467846 L32.2847302,30.2878041 Z M32.2114012,29.4252145 L32.0500772,29.3736065 C32.0500772,29.2064951 32.0329671,29.0369261 31.9987468,28.8648997 L32.0427444,28.8648997 C32.1820695,28.8648997 32.3800578,28.9533706 32.3873908,29.0197235 C32.3873908,29.1745474 32.3873908,29.3219985 32.4313881,29.4768223 L32.2114012,29.4252145 Z M32.1160733,28.5699972 L31.9547496,28.5257619 C31.9547496,28.3561928 31.9180848,28.1792516 31.8960862,28.0096826 L31.9327507,28.0096826 C32.0867416,28.0096826 32.2700643,28.0834082 32.2773971,28.1571337 C32.2773971,28.3119575 32.3140619,28.4667814 32.3360605,28.6289777 L32.1160733,28.5699972 Z M30.0115299,44.0523777 C29.8868704,43.9565346 29.7328794,43.8459461 29.7548783,43.7722204 C29.7915428,43.6321418 29.8282073,43.4920631 29.8648717,43.3372393 L30.0481944,43.4773179 C30.1655209,43.5584161 30.3268447,43.6616321 30.3121788,43.7353576 C30.297513,43.8090833 30.224184,44.0523777 30.1801868,44.1998291 L30.0115299,44.0523777 Z M30.0628603,44.5463396 C30.0041969,44.7085359 29.9455338,44.8707323 29.8868704,45.0181834 L29.7182138,44.8633598 C29.6008873,44.7675164 29.468895,44.6569279 29.4908936,44.5905749 C29.5128922,44.5242217 29.5862215,44.3104176 29.6375518,44.1629663 L29.8208745,44.3104176 C29.9235351,44.3620254 30.0555272,44.4652412 30.0628603,44.5242217 L30.0628603,44.5463396 Z M30.2681816,43.1529253 C30.143522,43.0644544 29.989531,42.9612386 29.9968641,42.8875129 C30.0041969,42.8137875 30.0628603,42.5926104 30.0921917,42.4451593 L30.2901802,42.5778655 C30.4148395,42.6515909 30.5761635,42.754807 30.5688305,42.8211599 C30.5614977,42.8875129 30.4955015,43.1381801 30.458837,43.2930039 L30.2681816,43.1529253 Z M21.6300204,26.0485809 L20.89673,26.0485809 L22.8766141,22.5761042 L23.6099045,22.5761042 L21.6300204,26.0485809 Z M23.4705793,26.0485809 L22.7372889,26.0485809 L22.3706437,25.3997955 L22.7372889,24.7583826 L23.4705793,26.0485809 Z M6.80288822,30.7670209 C6.78863146,30.7529709 6.76581464,30.7529709 6.75155789,30.7670209 C5.77628165,31.5485123 5.10898737,32.0203563 4.39036274,31.6664733 C4.38866127,31.6394678 4.38866127,31.6123809 4.39036274,31.5853751 C5.12365317,31.6664733 5.85694359,31.0250605 6.45090882,30.4500007 C6.46488324,30.4356668 6.46488324,30.4127266 6.45090882,30.3983927 C5.62962357,31.0619234 5.02099251,31.4969045 4.41969438,31.3936887 C4.4143506,31.3274442 4.4143506,31.2608738 4.41969438,31.1946293 C5.05576752,30.9687663 5.62375825,30.5829817 6.06959779,30.074 C5.60885141,30.5125295 5.06178369,30.8490752 4.46369179,31.0619234 C4.49374822,30.9097527 4.54047478,30.7613973 4.60301697,30.6195695 C5.00198148,30.3645767 5.37311892,30.0680378 5.71028551,29.734862 C5.72425992,29.7205283 5.72425992,29.6975881 5.71028551,29.6832542 C5.43079598,29.9145777 5.13953081,30.131132 4.83766992,30.3320397 C4.91826401,30.2226717 5.00648069,30.1191957 5.10165445,30.022392 C5.97387912,29.153402 6.96085011,28.4091704 8.03481612,27.8106234 L9.91203958,29.6979994 C9.45336785,29.68494 9.00211472,29.8164081 8.62144846,30.074 C7.94912757,30.4915316 7.30932428,30.9598076 6.70756046,31.4747869 C6.31891656,31.8360423 5.35830611,32.565926 4.64701441,31.9687485 C5.44630095,32.1604349 6.21625588,31.4526692 6.84688565,30.8628642 C6.87320966,30.8506487 6.88470035,30.8192912 6.87255079,30.7928249 C6.86040124,30.7663582 6.82921225,30.7548056 6.80288822,30.7670209 Z M8.26946906,27.6115642 C8.74610782,27.3535246 9.2520782,27.1028574 9.77271439,26.8743079 C9.81182323,27.6951198 9.86315356,28.4987291 9.9267054,29.2851359 L8.26946906,27.6115642 Z M9.80204603,24.9132064 L9.70671827,24.9574418 L9.70671827,25.0606577 C9.70671827,25.0606577 9.70671827,25.1270107 9.70671827,25.1638735 C9.26189403,25.510374 8.68794398,25.6425032 8.13747677,25.5251291 C8.13429011,25.4834127 8.13429011,25.4415119 8.13747677,25.3997955 C8.6875846,25.3350675 9.20978478,25.1209799 9.64805502,24.7805003 L10.4473416,24.3160289 C10.461316,24.301695 10.461316,24.2787548 10.4473416,24.2644209 C10.4343053,24.2545909 10.4163804,24.2545909 10.4033442,24.2644209 C10.0829747,24.3982171 9.77185542,24.5533865 9.47206533,24.7288924 C9.07241791,25.0106023 8.60815273,25.1856433 8.12281098,25.2375991 C8.12931708,25.1528016 8.14405296,25.0688466 8.16680838,24.986932 C8.55521938,24.8469151 8.92472256,24.6586877 9.26674402,24.4266173 L10.0660306,23.9621459 C10.080005,23.947812 10.080005,23.9248718 10.0660306,23.910538 C9.74793303,24.0441263 9.43923895,24.199308 9.14208465,24.3750094 C8.86420234,24.5408639 8.57217616,24.6814984 8.26946906,24.7952454 C8.3235441,24.6578642 8.39239344,24.5268374 8.47479037,24.4044996 L8.54811941,24.2939112 L8.92943042,24.0727343 L9.72871699,23.6082629 C9.7426914,23.593929 9.7426914,23.5709888 9.72871699,23.556655 C9.7156807,23.5468249 9.69775582,23.5468249 9.68471956,23.556655 C9.36656507,23.6901184 9.05786269,23.8453043 8.76077362,24.0211264 L8.72410911,24.0211264 C9.26331881,23.2508884 9.8667979,22.5282231 10.5280035,21.8609657 L12.4712231,23.8146947 C11.5661129,24.1355756 10.6776998,24.5022132 9.80937892,24.9132064 L9.80204603,24.9132064 Z M9.72871699,25.6504626 L9.60405762,25.7241883 C9.06875561,26.0412084 8.55545231,26.0780713 8.29146775,25.8126591 L8.29146775,25.7610511 C8.81521099,25.8214584 9.34165802,25.6732561 9.7580486,25.3481876 C9.73604988,25.458776 9.73604988,25.5251291 9.73604988,25.6209724 L9.72871699,25.6504626 Z M10.7333248,21.6324162 C10.9826436,21.3964943 11.2319623,21.1679448 11.4666153,20.946768 L13.2045135,23.5419099 L12.7572064,23.6967337 L10.7333248,21.6324162 Z M12.5298864,20.1579038 C13.0808743,19.7558488 13.6564164,19.388957 14.2531188,19.059392 C14.3088031,20.4380152 14.7234903,21.7777841 15.4557151,22.9447323 L14.5317692,23.1880269 L12.5298864,20.1579038 Z M19.0488381,15.3288756 C19.0488381,15.5426799 19.0488381,15.8449549 18.9901749,16.213583 C18.9096474,16.3518856 18.8137002,16.4805071 18.7041917,16.5969563 L18.601531,16.685427 C18.601531,16.619074 18.5428678,16.5600935 18.5062032,16.4937404 L18.4255413,16.3389166 L18.2788832,16.4273874 C18.1545345,16.5032753 18.0367888,16.5895958 17.9269038,16.685427 L17.7435812,16.8255057 C17.7616791,16.649032 17.7616791,16.4711549 17.7435812,16.2946812 L17.8022445,16.1988379 C18.1882736,16.0261745 18.5239934,15.7571613 18.7775207,15.4173463 L19.0488381,15.3288756 Z M19.0488381,14.9749926 L19.0488381,14.9307572 L19.0488381,14.9749926 Z M17.7435812,21.5365729 C17.964439,21.7690075 18.1299226,22.0488261 18.2275529,22.3549274 C17.9582311,22.3709643 17.6932656,22.4307173 17.4429321,22.5318688 C16.8668295,22.1816503 16.4972214,21.5705631 16.4529901,20.89516 C16.9326546,20.9427206 17.3835082,21.1473496 17.7362483,21.4775925 L17.7435812,21.5365729 Z M16.2770004,20.1726489 C16.1826883,20.0303373 16.10633,19.8767947 16.0496804,19.7155501 C15.9441748,19.4155623 15.9065967,19.0956805 15.9396868,18.7792347 C15.9663395,18.6071921 16.013105,18.4389156 16.079012,18.2779005 C16.7596058,18.7113909 17.1417863,19.4912709 17.068954,20.2979825 C16.81415,20.1936246 16.5442369,20.1313832 16.2696675,20.1136684 L16.2770004,20.1726489 Z M19.3421543,23.1216738 C19.7975305,23.3035509 20.1794778,23.6330756 20.4274241,24.0579892 C19.4650248,24.3856893 18.4067219,23.9804931 17.9049051,23.0921835 C18.3682455,22.9320928 18.871481,22.9320928 19.3348214,23.0921835 L19.3421543,23.1216738 Z M19.2761582,22.4876335 C19.1499343,22.4398468 19.0199252,22.4028528 18.8875142,22.377045 C18.6666424,22.0437648 18.5399194,21.6564435 18.5208691,21.2564156 C19.5087812,21.4163742 20.2547688,22.2429291 20.3174306,23.2470074 C20.0440611,22.8948009 19.6820352,22.6224494 19.2688253,22.4581432 L19.2761582,22.4876335 Z M18.3302135,20.5339045 L18.1542238,20.5339045 L18.1542238,20.710846 C18.1414838,20.858019 18.1414838,21.0060266 18.1542238,21.1531997 C18.1542238,21.1531997 18.1542238,21.1900625 18.1542238,21.2121802 C18.0833452,21.1128219 18.0048912,21.019154 17.9195709,20.9320228 C17.8032698,20.8138628 17.6755336,20.7076634 17.5382599,20.6150027 C17.4986582,20.4285669 17.483863,20.2376684 17.4942625,20.0473154 C17.4942625,20.0473154 17.4942625,20.0104526 17.4942625,19.9883349 C17.4942625,19.9662172 17.4942625,19.8556288 17.4942625,19.7966483 C17.5366045,19.6069751 17.6031519,19.4235996 17.6922509,19.2510787 C18.0936417,19.5253109 18.3908699,19.9280894 18.5355349,20.3938258 C18.5355349,20.4380612 18.5355349,20.4822965 18.5355349,20.5265319 L18.3302135,20.5339045 Z M18.3302135,15.1298164 C18.1635327,15.4027528 17.937992,15.6345524 17.6702522,15.8080921 C17.5838396,15.5431405 17.455047,15.294123 17.2889412,15.0708359 C17.3399219,14.9111353 17.4088051,14.7577833 17.4942625,14.6137371 L17.530927,14.5621291 C17.8829064,14.6505999 18.2006656,14.721868 18.4842045,14.7759334 C18.4296711,14.8891719 18.3659012,14.9976739 18.293549,15.1003262 L18.3302135,15.1298164 Z M17.6335877,17.3489576 C17.7436436,17.214135 17.8691751,17.092874 18.0075658,16.9877021 C18.1810821,17.3756687 18.2396405,17.805713 18.1762226,18.2262925 C18.1762226,18.2926456 18.1762226,18.3589986 18.1322251,18.4253517 C18.0882277,18.4917048 18.1322251,18.5064499 18.0882277,18.5506852 L17.9195709,18.4253517 L17.7729128,18.3295084 L17.684918,18.4843322 C17.6125525,18.6114991 17.5512182,18.7446977 17.5015954,18.8824506 L17.450265,19.0004115 C17.450265,18.9561762 17.450265,18.9119408 17.450265,18.8677054 C17.3870187,18.6866772 17.3033679,18.5135235 17.2009463,18.3516261 C17.2099515,18.2895853 17.2221899,18.2280627 17.2376108,18.167312 C17.4180199,17.9210177 17.5522103,17.6436901 17.6335877,17.3489576 Z M17.1642818,17.0540551 C17.1308529,17.3734887 17.0255309,17.6810786 16.8562998,17.9535077 C16.6700269,17.7519204 16.4520126,17.5825437 16.2110042,17.4521735 C16.1915442,17.2831689 16.1915442,17.1124713 16.2110042,16.9434667 C16.2672963,16.4505054 16.486826,15.9908947 16.8343011,15.6385232 C17.1064416,16.0621684 17.223134,16.5679632 17.1642818,17.0688003 L17.1642818,17.0540551 Z M16.0423474,16.213583 C15.9466145,16.0672971 15.8360276,15.9314043 15.7123668,15.8080921 C15.695104,15.6488247 15.695104,15.488143 15.7123668,15.3288756 C15.7413915,14.923871 15.8837508,14.5353772 16.1230094,14.2082461 L16.4309914,14.2598541 C16.6046059,14.5885376 16.6905062,14.9568585 16.6803101,15.3288756 C16.4016655,15.5769936 16.1812674,15.884198 16.0350145,16.2283282 L16.0423474,16.213583 Z M15.851692,17.2236241 C15.8515489,17.3669599 15.8638167,17.5100362 15.8883565,17.6512327 C15.8499465,17.7447222 15.8180928,17.8408004 15.7930287,17.9387626 C15.7293845,18.0884785 15.6802705,18.2440244 15.6463706,18.403234 C15.4955152,18.2785817 15.3306169,18.1721791 15.155066,18.0862138 C15.0768016,17.9439683 15.0152797,17.7930429 14.9717434,17.6364876 C14.8290458,17.147214 14.8708196,16.6222166 15.0890699,16.1619751 C15.4464449,16.4342471 15.7125334,16.8098146 15.851692,17.2383692 L15.851692,17.2236241 Z M15.6023732,19.2215884 C15.620599,19.4073581 15.6599652,19.5904118 15.7196997,19.767158 C15.7978672,19.9983434 15.9090213,20.2168869 16.0496804,20.4159435 C16.0496804,20.4822965 16.0496804,20.5486496 16.0496804,20.6150027 C15.8172057,20.5088466 15.5698916,20.4392242 15.3163899,20.4085709 C15.195129,20.3012834 15.0868363,20.1800324 14.9937422,20.0473154 C14.7192103,19.6399864 14.5876103,19.1522492 14.6197641,18.6612737 C14.9902262,18.7588691 15.3289297,18.9520086 15.6023732,19.2215884 Z M15.0670712,21.1015918 C15.4578643,21.0882413 15.8451347,21.1798565 16.1890055,21.367004 C16.3020624,21.753856 16.5057467,22.1078068 16.7829708,22.3991627 L16.8856314,22.495006 C16.6814259,22.487432 16.4770598,22.5047609 16.2770004,22.546614 C16.1265339,22.4849837 15.9837868,22.4058008 15.851692,22.310692 C15.4617526,22.0065964 15.1873835,21.5772028 15.0744041,21.0942192 L15.0670712,21.1015918 Z M17.5749244,23.2101445 C17.7560964,23.5361742 18.0064548,23.818092 18.3082148,24.0358715 C18.1445211,24.092904 17.987226,24.1670349 17.838909,24.2570484 C17.6771124,24.2465821 17.5171183,24.216885 17.3622702,24.1685776 C16.8966331,24.0118647 16.4965307,23.7030281 16.2256701,23.2912427 C16.6572347,23.1184934 17.1321122,23.0875239 17.5822573,23.202772 L17.5749244,23.2101445 Z M19.3274885,24.4561076 C19.4981257,24.4740222 19.6701546,24.4740222 19.8407918,24.4561076 C20.1743686,24.5276982 20.4876452,24.6738447 20.7574048,24.8837162 C19.9864096,25.5464727 18.8548963,25.5619718 18.066229,24.920579 C18.4293129,24.6332525 18.8731644,24.4681651 19.3348214,24.448735 L19.3274885,24.4561076 Z M20.7207403,22.6055945 L21.4540307,22.6055945 L21.9526682,23.4903019 L21.586023,24.1317148 L20.7207403,22.6055945 Z M24.4385227,24.4929704 C24.6091428,24.5112116 24.7812059,24.5112116 24.951826,24.4929704 C25.4142685,24.5223615 25.8556725,24.6978138 26.2130855,24.9943046 C25.4267664,25.6345691 24.297872,25.6190637 23.5292426,24.9574418 C23.7948581,24.7317358 24.1084411,24.5703131 24.4458556,24.4855978 L24.4385227,24.4929704 Z M31.7347624,32.8682009 L31.5661056,32.801848 C31.5661056,32.6396517 31.5661056,32.4700826 31.5661056,32.3005138 L31.6174359,32.3005138 C31.7640938,32.3521216 31.9474165,32.4184746 31.9474165,32.4922003 C31.9474165,32.6396517 31.9474165,32.7944755 31.9474165,32.9419266 L31.7347624,32.8682009 Z M31.9474165,33.3695353 C31.9474165,33.5243592 31.9474165,33.6718103 31.9474165,33.8266341 L31.7420952,33.7381632 L31.5661056,33.6644378 C31.5661056,33.5022412 31.5661056,33.3326725 31.5661056,33.155731 L31.6174359,33.155731 C31.7347624,33.2294567 31.9327507,33.2958096 31.9327507,33.3695353 L31.9474165,33.3695353 Z M31.6980979,32.0056113 L31.5294411,31.9392581 C31.5294411,31.7770618 31.5294411,31.6074928 31.5294411,31.4305513 L31.5807714,31.4305513 C31.7274294,31.4821593 31.9034192,31.5411398 31.910752,31.6074928 C31.910752,31.7623166 31.910752,31.909768 31.910752,32.0645918 L31.6980979,32.0056113 Z M31.6614332,31.150394 L31.4927764,31.0914135 C31.4927764,30.9218447 31.4927764,30.7522757 31.4927764,30.5827066 L31.5441067,30.5827066 C31.6907649,30.6269422 31.8740875,30.6859227 31.8740875,30.7596481 C31.8740875,30.914472 31.8740875,31.0692958 31.8740875,31.2241197 L31.6614332,31.150394 Z M31.6027701,30.2878041 L31.4341132,30.2288236 C31.4341132,30.0617123 31.4194474,29.8921435 31.3901157,29.720117 L31.4341132,29.720117 C31.5734384,29.7569799 31.7640938,29.8159604 31.7714269,29.8823134 L31.7714269,30.3467846 L31.6027701,30.2878041 Z M31.5294411,29.4252145 L31.3681171,29.3736065 L31.3167867,28.8648997 L31.3607843,28.8648997 C31.5001094,28.8648997 31.6980979,28.9533706 31.7054307,29.0197235 C31.7054307,29.1745474 31.7054307,29.3219985 31.7494283,29.4768223 L31.5294411,29.4252145 Z M31.4341132,28.5699972 L31.2727895,28.5257619 C31.2727895,28.3561928 31.2287919,28.1792516 31.2067933,28.0096826 L31.2434578,28.0096826 C31.3974488,28.0096826 31.5807714,28.0834082 31.5881042,28.1571337 C31.5881042,28.3119575 31.6247687,28.4667814 31.6467676,28.6289777 L31.4341132,28.5699972 Z M31.001472,32.8682009 C30.847481,32.8092204 30.6788242,32.7502399 30.6714911,32.6691418 C30.6714911,32.5216907 30.6714911,32.381612 30.6714911,32.2341606 L30.8768124,32.3152588 C31.0234706,32.3668668 31.2067933,32.4332198 31.2067933,32.5069455 C31.2067933,32.6543966 31.2067933,32.8092204 31.2067933,32.9566718 L31.001472,32.8682009 Z M31.2141261,33.3695353 C31.2141261,33.5243592 31.2141261,33.6718103 31.2141261,33.8266341 L31.0088048,33.7381632 C30.8621468,33.6791827 30.686157,33.6128298 30.6788242,33.5317316 C30.6714911,33.4506335 30.6788242,33.2368291 30.6788242,33.089378 L30.8841455,33.1778486 C31.0601351,33.2294567 31.2287919,33.2958096 31.2287919,33.3695353 L31.2141261,33.3695353 Z M31.001472,32.0129838 C30.8548138,31.9613758 30.6788242,31.9023953 30.6714911,31.8212971 C30.6714911,31.673846 30.6714911,31.5263946 30.6714911,31.386316 L30.8841455,31.4674141 C31.0308034,31.5190222 31.2067933,31.5780027 31.2141261,31.6443556 L31.2141261,32.1014544 L31.001472,32.0129838 Z M30.9648075,31.1577667 C30.8181493,31.1061587 30.6348266,31.0471782 30.6274939,30.9734525 C30.6274939,30.8260014 30.6274939,30.67855 30.6274939,30.5310989 L30.840148,30.6048245 C30.9868061,30.6490599 31.1701288,30.7080404 31.1701288,30.7817658 C31.1701288,30.9365896 31.1701288,31.0914135 31.1701288,31.2462373 L30.9648075,31.1577667 Z M30.9061441,30.2951769 C30.7594862,30.2509415 30.5688305,30.191961 30.5688305,30.1108626 C30.5688305,29.9634115 30.5688305,29.8159604 30.532166,29.668509 L30.7448204,29.734862 C30.8841455,29.7717248 31.074801,29.8307053 31.0821337,29.8970585 C31.0821337,30.0518821 31.0821337,30.206706 31.0821337,30.3615298 L30.9061441,30.2951769 Z M30.539499,39.0758983 L30.7374873,39.1864869 C30.8768124,39.2528398 31.0454693,39.3413107 31.0381365,39.4150362 C31.0381365,39.56986 31.0381365,39.7246838 30.9941389,39.872135 L30.7888176,39.754174 C30.6568255,39.687821 30.4955015,39.5993504 30.4881687,39.5256247 C30.4808357,39.451899 30.5028343,39.2233497 30.5175001,39.0758983 L30.539499,39.0758983 Z M30.8768124,38.8915844 C30.7448204,38.8252312 30.5761635,38.744133 30.5688305,38.6630348 C30.5614977,38.5819367 30.5688305,38.3607599 30.5688305,38.2133085 L30.7594862,38.3091518 C30.9501417,38.3976227 31.074801,38.4639757 31.0674682,38.5524466 C31.0674682,38.7072702 31.0674682,38.8547215 31.0674682,39.0095454 L30.8768124,38.8915844 Z M30.9281428,38.0142493 C30.7888176,37.9478964 30.6274939,37.8741707 30.6348266,37.800445 L30.6348266,37.3507189 L30.8108165,37.4318171 C31.0454693,37.5276604 31.1407971,37.5866409 31.1334641,37.682484 C31.1334641,37.8299354 31.1334641,37.9773865 31.1334641,38.1248379 L30.9281428,38.0142493 Z M30.9281428,37.1369146 C30.766819,37.0705614 30.6421597,37.0115809 30.6421597,36.9452279 C30.6421597,36.7977768 30.6421597,36.6576979 30.6421597,36.5102467 L30.847481,36.6134625 C30.9868061,36.672443 31.1627958,36.7535412 31.155463,36.8198944 C31.155463,36.9599731 31.155463,37.1074242 31.155463,37.2475029 L30.9281428,37.1369146 Z M30.9941389,36.31856 C30.847481,36.2522071 30.6714911,36.1784814 30.6714911,36.0973832 C30.6714911,36.0162851 30.6714911,35.8024807 30.6714911,35.6550296 L30.8621468,35.7435002 C31.0528023,35.8245984 31.1847944,35.8835789 31.1847944,35.964677 C31.1847944,36.1121284 31.1847944,36.2669523 31.1847944,36.4144034 L30.9941389,36.31856 Z M30.9941389,35.4485977 C30.847481,35.3896172 30.686157,35.3158915 30.686157,35.2347934 L30.686157,34.7998122 L30.8841455,34.8882831 C31.0381365,34.9472636 31.2067933,35.020989 31.2067933,35.1020875 C31.2067933,35.2495386 31.2067933,35.39699 31.2067933,35.5518135 L30.9941389,35.4485977 Z M30.9941389,34.5860079 C30.847481,34.5270274 30.6788242,34.4606744 30.6788242,34.3795763 C30.6788242,34.2321249 30.6788242,34.0920462 30.6788242,33.9445951 L30.8841455,34.0330657 C31.0308034,34.0920462 31.2067933,34.1583995 31.2067933,34.2321249 C31.2067933,34.2984781 31.2067933,34.3648311 31.2067933,34.4385568 C31.2067933,34.5122825 31.2067933,34.6007531 31.2067933,34.6818512 L30.9941389,34.5860079 Z M31.2581236,27.7074076 L31.1481299,27.6705447 L31.0821337,27.2060732 L31.1187985,27.2060732 C31.2727895,27.2060732 31.4561119,27.2724264 31.4707777,27.3461519 C31.4707777,27.4788581 31.5147753,27.6189367 31.5294411,27.7590154 L31.2581236,27.7074076 Z M31.1334641,26.8964255 L30.9794731,26.8964255 C30.9794731,26.7416019 30.9281428,26.5867781 30.8988113,26.4393267 L31.001472,26.4393267 C31.1407971,26.4393267 31.3387854,26.4909348 31.3534512,26.5572877 C31.3681171,26.6236409 31.4047816,26.837445 31.4267804,26.9775239 L31.1334641,26.8964255 Z M30.9868061,26.0928164 L30.8328152,26.0928164 C30.8328152,25.9232474 30.7594862,25.7610511 30.7228215,25.5988547 C30.8694796,25.5988547 31.0674682,25.6578352 31.0967996,25.7241883 L31.1921275,26.1591694 L30.9868061,26.0928164 Z M29.9382007,22.8120262 L29.7402124,22.8783793 L29.6962149,22.8783793 C29.6262104,22.7686431 29.5503252,22.6628137 29.468895,22.5613591 C29.4942986,22.5128323 29.5263914,22.4681558 29.5642226,22.428653 C29.7195896,22.5377433 29.8579801,22.6694285 29.9748654,22.8193988 L29.9382007,22.8120262 Z M29.8135414,22.2443389 L29.9675324,22.2885743 L29.9675324,22.3401822 L29.8135414,22.2443389 Z M30.1581879,23.1216738 C30.252918,23.2711873 30.3386232,23.4262908 30.4148395,23.5861452 L30.2021854,23.5861452 L30.0628603,23.5861452 C29.9993083,23.4485241 29.9333121,23.320733 29.8648717,23.202772 C30.0481944,23.1290464 30.1655209,23.0921835 30.1948523,23.1216738 L30.1581879,23.1216738 Z M30.1581879,22.5834768 C30.1845788,22.5355727 30.2165829,22.4910199 30.2535157,22.4507706 C30.3963145,22.5532601 30.5245925,22.6747914 30.6348266,22.8120262 L30.4368384,22.8783793 L30.3928409,22.8783793 C30.334317,22.7768835 30.2706824,22.6784548 30.2021854,22.5834768 L30.1581879,22.5834768 Z M30.5908294,23.9842636 C30.6494925,24.1390874 30.7154887,24.3086563 30.7741518,24.4782252 L30.5614977,24.4339899 L30.3928409,24.4339899 C30.3341777,24.2570484 30.2681816,24.0874794 30.2021854,23.9252831 C30.4001737,23.9031654 30.5834963,23.9179105 30.6274939,23.9842636 L30.5908294,23.9842636 Z M30.5028343,24.7215198 C30.6568255,24.7215198 30.8548138,24.7805003 30.8988113,24.8542259 C30.9428086,24.9279515 30.9794731,25.1270107 31.0161378,25.274462 L30.7888176,25.2302266 L30.6348266,25.2302266 C30.5908294,25.0680302 30.5468318,24.9132064 30.5028343,24.7583826 L30.5028343,24.7215198 Z M31.0894668,24.3750094 C31.0308034,24.1980679 30.9648075,24.0284989 30.8988113,23.8663026 C31.0528023,23.8663026 31.2434578,23.8663026 31.2874551,23.9547733 C31.3314526,24.0432441 31.4121146,24.2791661 31.4707777,24.448735 L31.2581236,24.4044996 L31.0894668,24.3750094 Z M30.8988113,23.5419099 L30.7594862,23.5419099 C30.69349,23.4092037 30.6348266,23.2764976 30.5614977,23.1585366 C30.7081559,23.1069287 30.8181493,23.0700659 30.8548138,23.0995561 C30.9495437,23.2490696 31.0352488,23.4041732 31.1114654,23.5640275 L30.8988113,23.5419099 Z M30.3488433,22.0673974 C30.1135855,21.9114953 29.8386389,21.8270295 29.5568898,21.8241029 L29.5348911,21.8241029 C29.4693966,21.8125314 29.4023969,21.8125314 29.3369026,21.8241029 C29.7695327,20.8983137 30.0186035,19.8966425 30.0701931,18.875078 C30.649847,19.2451111 31.2057989,19.6514027 31.7347624,20.0915508 L30.3488433,22.0673974 Z M29.2195761,19.9809623 C29.1264292,20.1136369 29.0181417,20.2348819 28.8969283,20.3422179 C28.6433582,20.3725237 28.3959918,20.4421608 28.1636379,20.5486496 C28.1636379,20.4822965 28.1636379,20.4159435 28.1636379,20.3495904 C28.3032662,20.149907 28.4143422,19.9315171 28.4936188,19.700805 C28.5534155,19.5240761 28.5927834,19.3410151 28.6109453,19.1552354 C28.872438,18.8857246 29.1980321,18.687789 29.5568898,18.5801755 C29.6316411,19.088632 29.5279291,19.6073897 29.2635737,20.0473154 L29.2195761,19.9809623 Z M29.2635737,22.192731 L29.2635737,22.2443389 L29.2635737,22.2074761 L29.2635737,22.192731 Z M29.2635737,17.5406442 C29.2177698,17.6975466 29.1537789,17.8484913 29.0729182,17.9903705 C28.8976589,18.0768566 28.7328186,18.1832219 28.5816136,18.3073907 C28.5473488,18.1506679 28.4982388,17.9976033 28.4349554,17.8502918 C28.4088427,17.7526436 28.3770114,17.6566328 28.3396278,17.5627619 C28.3648685,17.4216581 28.3771418,17.2785185 28.3762923,17.1351533 C28.523938,16.7191149 28.7921061,16.3570556 29.1462472,16.095622 C29.2492036,16.3288997 29.3112265,16.5783329 29.3295698,16.8328783 C29.3783772,17.0985007 29.3783772,17.3708651 29.3295698,17.6364876 L29.2635737,17.5406442 Z M28.5302832,15.7269939 C28.406583,15.8502702 28.2959926,15.9861673 28.2003026,16.1324849 C28.0605348,15.7965422 27.8504514,15.4948 27.5843385,15.2477774 C27.3570493,15.0443011 27.27839,14.7208218 27.3866653,14.4348626 C27.4949406,14.1489034 27.7676433,13.9599063 28.0719768,13.9599063 C28.37631,13.9599063 28.6490128,14.1489034 28.7572881,14.4348626 C28.8655634,14.7208218 28.7869041,15.0443011 28.5596149,15.2477774 C28.5926904,15.4375913 28.6000903,15.6310298 28.5816136,15.8228372 L28.5302832,15.7269939 Z M28.3102961,18.6170383 C28.3409904,18.9334642 28.3034736,19.2528242 28.2003026,19.5533537 C28.1430441,19.7143377 28.0667218,19.8678077 27.9729824,20.0104526 C27.6988378,20.0259411 27.4289587,20.0856855 27.1736958,20.187394 C27.0868149,19.3642852 27.4737773,18.5632896 28.1709709,18.1230767 C28.2609665,18.3100213 28.3251126,18.5084613 28.3616264,18.7128816 L28.3102961,18.6170383 Z M27.8043256,20.7403362 C27.7627171,21.2356981 27.5530124,21.701626 27.2103606,22.0600249 C27.0913459,22.1811195 26.9584187,22.2875415 26.8143836,22.377045 C26.5640502,22.2758935 26.2990846,22.2161406 26.0297628,22.2001035 C26.1252457,21.8946785 26.288189,21.6149166 26.5064016,21.3817491 C26.8796908,21.0529066 27.3526112,20.8606367 27.8483231,20.8361795 L27.8043256,20.7403362 Z M26.8437152,18.7866072 C26.8437152,18.8308426 26.8437152,18.875078 26.8437152,18.9193134 L26.7923849,18.8013524 C26.7428983,18.6635432 26.6815587,18.530333 26.6090622,18.403234 L26.5210674,18.2484102 L26.3744095,18.3442535 L26.2057527,18.4695871 C26.2057527,18.4253517 26.2057527,18.3884889 26.1617551,18.3442535 C26.1177579,18.3000181 26.1617551,18.2115474 26.1177579,18.1451943 C26.0513256,17.724642 26.1100022,17.2937298 26.2864144,16.9066039 C26.4236977,17.0130746 26.5490901,17.1342014 26.6603926,17.2678594 C26.7546648,17.5555297 26.9013779,17.8230415 27.0930341,18.0567236 C27.1084161,18.1174832 27.120654,18.1790038 27.1296986,18.2410376 C27.0227223,18.4430686 26.9437711,18.6588782 26.8950456,18.8824506 L26.8437152,18.7866072 Z M26.4990688,19.1036274 C26.588628,19.2759444 26.655198,19.4593818 26.6970571,19.649197 C26.6970571,19.7155501 26.6970571,19.7745306 26.6970571,19.8408836 C26.6970571,19.9072367 26.6970571,19.8777464 26.6970571,19.8998641 C26.7083829,20.0926697 26.6935816,20.2861283 26.6530598,20.474924 C26.5155773,20.5673033 26.3878141,20.6735251 26.2717488,20.7919442 C26.1866173,20.8818665 26.1081875,20.9779697 26.0370959,21.0794741 C26.0370959,21.0794741 26.0370959,21.0426113 26.0370959,21.0204936 C26.0508753,20.8733678 26.0508753,20.7252657 26.0370959,20.5781399 L26.0370959,20.4011984 L25.861106,20.4011984 L25.6484519,20.4011984 C25.6484519,20.356963 25.6484519,20.3127276 25.6484519,20.2684923 C25.8216408,19.8188115 26.1390302,19.4400354 26.5503991,19.1920982 L26.4990688,19.1036274 Z M25.7291139,21.1384546 C25.7100634,21.5384825 25.5833406,21.9258038 25.3624686,22.259084 C25.2300738,22.2849596 25.1000703,22.3219521 24.9738247,22.3696725 C24.5662913,22.5192186 24.2047797,22.7733912 23.9252194,23.1069287 C23.9852689,22.0976816 24.735773,21.2664353 25.7291139,21.1089643 L25.7291139,21.1384546 Z M24.9078286,22.9963403 C25.3822982,22.8276827 25.8999399,22.8276827 26.3744095,22.9963403 C25.8725927,23.8846498 24.8142896,24.289846 23.8518904,23.9621459 C24.1164535,23.5582464 24.5053954,23.2526613 24.9591589,23.0921835 L24.9078286,22.9963403 Z M25.9124363,23.9400282 C26.2143584,23.7224299 26.4647522,23.4404722 26.6457267,23.1143013 C27.0881843,23.0014684 27.5545951,23.0298105 27.9803155,23.1953994 C27.7094547,23.6071848 27.3093524,23.9160214 26.8437152,24.0727343 C26.6889515,24.1213844 26.5289161,24.1510891 26.3670765,24.1612051 C26.2366104,24.1055929 26.101691,24.0611987 25.9637666,24.0284989 L25.9124363,23.9400282 Z M27.9509838,22.4655158 C27.7510101,22.4230747 27.5465718,22.4057396 27.3423527,22.4139079 L27.4450133,22.3180645 C27.7253545,22.0278388 27.9316608,21.6737035 28.0463117,21.2859058 C28.3923464,21.0974755 28.7823205,21.0058198 29.1755789,21.0204936 C29.0520497,21.5024653 28.7704426,21.9284591 28.3762923,22.2295938 C28.2621502,22.3363911 28.1367473,22.430334 28.0023141,22.5097511 L27.9509838,22.4655158 Z M28.9849234,22.4655158 C29.0693782,22.5402884 29.147839,22.6216386 29.2195761,22.7088103 L29.0215879,22.7751634 L28.8822627,22.8267713 L28.6989401,22.7530457 C28.8169372,22.7004108 28.9319903,22.6413425 29.0435865,22.5761042 L28.9849234,22.4655158 Z M28.9849234,23.1143013 L29.0949168,23.0774384 C29.2489078,23.0184579 29.3662343,22.9815951 29.4028988,23.0184579 C29.4976287,23.1679714 29.5833338,23.323075 29.6595504,23.4829294 L29.4395633,23.4829294 C29.2782395,23.4829294 29.087584,23.4829294 29.0289207,23.3944586 L28.9189272,23.2248897 L28.9849234,23.1143013 Z M29.4322305,23.7852044 C29.5935543,23.7852044 29.7915428,23.7852044 29.8355401,23.8736752 C29.8795376,23.9621459 29.9601996,24.1980679 30.0188627,24.3676368 L29.8062086,24.3234014 C29.6695645,24.3135358 29.5368123,24.273243 29.4175646,24.2054404 C29.3589013,24.0506167 29.3002381,23.9031654 29.241575,23.7704593 L29.4322305,23.7852044 Z M29.7475452,24.6404216 C29.9015362,24.6404216 30.0995247,24.6994021 30.143522,24.7731277 C30.1875195,24.8468534 30.224184,25.0459125 30.2608485,25.1933638 L30.0335286,25.1491284 C29.9068668,25.1406793 29.7838771,25.1028258 29.6742163,25.03854 C29.6375518,24.8910887 29.5935543,24.7436375 29.549557,24.6035588 L29.7475452,24.6404216 Z M29.9821982,25.4661486 C30.1288564,25.4661486 30.3268447,25.5251291 30.3561764,25.5914821 C30.3855081,25.6578352 30.4221725,25.8790121 30.451504,26.0264632 L30.2315171,25.9822279 C30.0921917,25.9822279 29.9235351,25.9306199 29.8795376,25.8716394 C29.8355401,25.8126591 29.8135414,25.5693645 29.7768769,25.4219132 L29.9821982,25.4661486 Z M30.2681816,26.4172091 C30.4075067,26.4172091 30.5981622,26.4688171 30.6201608,26.5351701 C30.6421597,26.6015233 30.6714911,26.8153274 30.69349,26.955406 L30.4661698,26.9037982 C30.3195119,26.9037982 30.1508551,26.8448177 30.1215234,26.7784645 C30.0921917,26.7121116 30.0701931,26.5056799 30.0481944,26.3729738 L30.2681816,26.4172091 Z M30.4075067,27.2208184 C30.5614977,27.2208184 30.7521531,27.2871714 30.7594862,27.3608971 C30.7594862,27.4936032 30.8034835,27.6336819 30.8181493,27.7737606 L30.5908294,27.7147801 C30.4441712,27.7147801 30.2681816,27.6410544 30.2461827,27.5747014 C30.224184,27.5083482 30.2095182,27.309289 30.1875195,27.1765831 L30.4075067,27.2208184 Z M30.5248332,28.0244277 C30.6788242,28.0244277 30.8621468,28.0981532 30.8694796,28.1718789 C30.8694796,28.3267027 30.9061441,28.4815266 30.9281428,28.6437229 L30.7081559,28.5773699 C30.5688305,28.5773699 30.3928409,28.4962717 30.3635092,28.4299185 L30.304846,27.9728197 L30.5248332,28.0244277 Z M30.6348266,28.8870173 C30.7741518,28.8870173 30.9721403,28.9754882 30.9721403,29.0418412 C30.9721403,29.196665 30.9721403,29.3441164 31.0161378,29.49894 L30.7961507,29.4252145 C30.6494925,29.380979 30.4735029,29.3367437 30.451504,29.263018 C30.4295053,29.1892926 30.451504,28.9681157 30.4075067,28.8206644 L30.6348266,28.8870173 Z M30.4295053,39.9458607 L30.6274939,40.0564492 C30.766819,40.1301749 30.9354758,40.2186455 30.9281428,40.2923712 C30.9281428,40.4447374 30.9085886,40.5971038 30.8694796,40.74947 L30.6714911,40.631509 C30.539499,40.5577833 30.3708422,40.4693127 30.3708422,40.3882145 C30.3708422,40.3071164 30.4148395,40.0785668 30.4368384,39.923743 L30.4295053,39.9458607 Z M30.5248332,40.919039 C30.6568255,40.985392 30.8254821,41.0812353 30.8181493,41.154961 C30.8181493,41.3097846 30.7741518,41.4646085 30.7521531,41.6194323 L30.5541646,41.4940988 C30.4148395,41.4130007 30.2461827,41.3171573 30.2608485,41.2434316 C30.2608485,41.103353 30.304846,40.9559016 30.3195119,40.8084505 L30.5248332,40.919039 Z M30.3928409,41.7742561 C30.5175001,41.8479818 30.69349,41.9438252 30.6788242,42.0175506 C30.6788242,42.1723745 30.6274939,42.3271983 30.5981622,42.4746494 L30.4075067,42.349316 C30.2755144,42.2682178 30.1215234,42.1723745 30.1215234,42.0912763 C30.1215234,42.0101781 30.1728537,41.8037463 30.1948523,41.6489227 L30.3928409,41.7742561 Z M30.4881687,44.2882997 C30.5908294,44.3620254 30.7228215,44.4652412 30.7301545,44.5242217 C30.7374873,44.5832022 30.612828,44.8486146 30.5541646,44.9960657 L30.3855081,44.8412419 L30.297513,44.7675164 C30.3855081,44.6274378 30.4441712,44.4357511 30.4955015,44.2661821 L30.4881687,44.2882997 Z M30.7008228,44.0523777 L30.5834963,43.9565346 C30.6274939,43.7943381 30.6714911,43.6247693 30.7154887,43.4552003 C30.8328152,43.5362984 30.9941389,43.6395145 30.9794731,43.7132399 C30.9648075,43.7869656 30.8914783,44.0302601 30.847481,44.1777114 L30.7008228,44.0523777 Z M30.92081,43.2045331 L30.7961507,43.1160624 C30.8328152,42.9464934 30.8694796,42.7769246 30.9061441,42.6073556 C31.0308034,42.6810813 31.1921275,42.7842971 31.1847944,42.8506503 C31.1774616,42.9170033 31.1114654,43.1676705 31.074801,43.3224941 L30.92081,43.2045331 Z M31.1041326,42.349316 L30.9721403,42.2608453 L31.0601351,41.7521385 C31.1847944,41.8258642 31.3607843,41.9217073 31.3461184,41.995433 C31.3461184,42.1502568 31.2874551,42.3050806 31.2581236,42.4525318 L31.1041326,42.349316 Z M31.2507906,41.4940988 L31.1114654,41.4130007 C31.1114654,41.2434316 31.1627958,41.0738626 31.1847944,40.9042938 L31.2214591,40.9042938 C31.3461184,40.9706468 31.5221081,41.0664901 31.5147753,41.1402158 C31.5147753,41.2950397 31.4707777,41.4498633 31.4487791,41.6046871 L31.2507906,41.4940988 Z M31.3754501,40.6388815 L31.2287919,40.5504108 C31.2287919,40.3808418 31.2654564,40.211273 31.2874551,40.041704 C31.4267804,40.1154297 31.5954373,40.2039003 31.5881042,40.277626 C31.5881042,40.4324498 31.5881042,40.579901 31.5294411,40.7347248 L31.3754501,40.6388815 Z M31.4707777,39.7762919 L31.3241198,39.6951937 C31.3241198,39.5256247 31.3241198,39.3560557 31.3681171,39.1864869 L31.4121146,39.1864869 C31.5514397,39.2528398 31.7200966,39.3413107 31.7127635,39.4150362 C31.7127635,39.56986 31.7127635,39.7246838 31.6687662,39.872135 L31.4707777,39.7762919 Z M31.5514397,38.913702 L31.3974488,38.8326039 C31.3974488,38.6630348 31.3974488,38.4860933 31.4341132,38.3165246 C31.6247687,38.4049952 31.7494283,38.4713482 31.7494283,38.559819 C31.7494283,38.7146429 31.7494283,38.862094 31.7494283,39.0169178 L31.5514397,38.913702 Z M31.6027701,38.036367 L31.4561119,37.9626416 L31.4561119,37.4391895 C31.6907649,37.5350329 31.7860927,37.5940134 31.7787597,37.6898567 C31.7787597,37.8373078 31.7787597,37.9847592 31.7787597,38.1322103 L31.6027701,38.036367 Z M31.6027701,37.1590322 L31.4634449,37.1000517 C31.4634449,36.9304827 31.4634449,36.7682864 31.4634449,36.6134625 L31.5147753,36.6134625 C31.6541004,36.672443 31.8227572,36.7535412 31.8227572,36.8198944 C31.8227572,36.9599731 31.8227572,37.1074242 31.8227572,37.2475029 L31.6027701,37.1590322 Z M31.6687662,36.3406777 L31.5001094,36.2595795 C31.5001094,36.082638 31.5001094,35.9130693 31.5001094,35.7435002 L31.5441067,35.7435002 C31.7347624,35.8245984 31.8667545,35.8835789 31.8667545,35.964677 L31.8667545,36.4144034 L31.6687662,36.3406777 Z M31.6687662,35.4707154 L31.5074422,35.39699 C31.5074422,35.2126757 31.5074422,35.0504794 31.5074422,34.8882831 L31.5514397,34.8882831 C31.7054307,34.9472636 31.8740875,35.020989 31.8740875,35.1020875 C31.8740875,35.2495386 31.8740875,35.39699 31.8740875,35.5518135 L31.6687662,35.4707154 Z M31.6687662,34.6081258 L31.5001094,34.5344001 L31.5001094,34.4606744 C31.5001094,34.3279682 31.5001094,34.1878896 31.5001094,34.0330657 L31.5587725,34.0330657 C31.7054307,34.0920462 31.8814203,34.1583995 31.8814203,34.2321249 C31.8814203,34.2984781 31.8814203,34.3648311 31.8814203,34.4385568 C31.8814203,34.5122825 31.8814203,34.6007531 31.8814203,34.6818512 L31.6687662,34.6081258 Z M31.9327507,27.7295252 L31.7787597,27.6926624 C31.7787597,27.5378386 31.7347624,27.3830147 31.7127635,27.2281909 L31.7494283,27.2281909 C31.9034192,27.2281909 32.0867416,27.2945441 32.1014075,27.3682695 C32.1014075,27.5009757 32.145405,27.6410544 32.1600709,27.781133 L31.9327507,27.7295252 Z M31.8080914,26.9185434 L31.6541004,26.9185434 C31.6541004,26.7637196 31.5954373,26.6088957 31.5734384,26.4614444 L31.6174359,26.4614444 C31.756761,26.4614444 31.9474165,26.5130524 31.9694152,26.5794054 C31.991414,26.6457586 32.0207455,26.8595629 32.0427444,26.9996416 L31.8080914,26.9185434 Z M31.6614332,26.1149341 L31.5074422,26.1149341 C31.5074422,25.9453651 31.4341132,25.7831688 31.3974488,25.6209724 C31.5441067,25.6209724 31.7420952,25.6799529 31.7714269,25.7463059 L31.8667545,26.1812871 L31.6614332,26.1149341 Z M31.4634449,25.274462 L31.3094539,25.274462 C31.2654564,25.1122656 31.2214591,24.9574418 31.1774616,24.802618 C31.3314526,24.802618 31.5294411,24.8615985 31.5734384,24.9353241 C31.6174359,25.0090497 31.6541004,25.2081089 31.6907649,25.3555601 L31.4634449,25.274462 Z M31.4634449,23.6598708 C31.3827829,23.4903019 31.3021209,23.3281055 31.2214591,23.1806543 L32.7320373,20.9320228 C32.9886889,21.1531997 33.2453405,21.3817491 33.4653277,21.6250437 L31.4634449,23.6598708 Z M28.0683103,16.9655844 C28.0889478,17.1345186 28.0889478,17.305357 28.0683103,17.4742912 C27.8275903,17.6051075 27.6096443,17.7744312 27.4230147,17.9756254 C27.2535495,17.7033085 27.1482083,17.3956628 27.1150327,17.0761728 C27.0662101,16.5832847 27.1879342,16.0885469 27.4596792,15.675386 C27.8016776,16.0239899 28.0162018,16.4787463 28.0683103,16.9655844 Z M26.1837538,12.3429879 C26.6163915,12.5802626 26.9572555,12.9567217 27.1516972,13.4120094 C27.2124292,13.5615238 27.2566905,13.7172763 27.2836895,13.8764808 C27.1985963,14.0499879 27.1345841,14.2331618 27.0930341,14.4220504 C26.8693497,14.0500128 26.553534,13.7426499 26.176421,13.5299704 C26.1351396,13.388052 26.1081171,13.2423293 26.095759,13.0949892 C26.0901296,12.8393053 26.1298593,12.5846583 26.2130855,12.3429879 L26.1837538,12.3429879 Z M25.7291139,13.6626765 C26.3547608,13.8899561 26.8398015,14.3966906 27.0417038,15.0339731 C26.8776212,15.2574094 26.7512702,15.5064965 26.6677256,15.7712293 C26.3993408,15.5984853 26.1736396,15.3665207 26.0077642,15.0929536 C25.8440071,14.8185348 25.7414306,14.5116559 25.707115,14.193501 C25.694227,14.016296 25.7016083,13.8381894 25.7291139,13.6626765 Z M26.4990688,16.1177397 L26.5577319,16.213583 C26.5388781,16.3900168 26.5388781,16.5679737 26.5577319,16.7444075 L26.3744095,16.6043288 C26.2643124,16.5087656 26.1465897,16.4224619 26.02243,16.3462892 L25.868439,16.2578184 L25.7804442,16.4126422 L25.6924494,16.6043288 L25.5897888,16.5158581 C25.5097168,16.4306425 25.4361777,16.3394536 25.3698016,16.2430733 C25.3698016,15.9235956 25.3698016,15.5992029 25.3698016,15.2698951 L25.5677899,15.3362481 C25.8067693,15.677949 26.1268937,15.9541873 26.4990688,16.1398574 L26.4990688,16.1177397 Z M25.2084776,12.0407128 C25.3130895,12.1630718 25.4040702,12.2965724 25.4797951,12.4388312 C25.4392287,12.7002044 25.4392287,12.9663222 25.4797951,13.2276954 L25.3844674,13.1908325 C25.2843573,13.0729852 25.1739199,12.964418 25.0544866,12.8664398 C24.9958234,12.4978117 24.9224944,12.1291836 24.8344995,11.7384378 C24.9704033,11.8242639 25.0959074,11.925705 25.2084776,12.0407128 Z M25.3551358,18.6760188 C25.3551358,18.167312 25.3551358,17.6586052 25.3551358,17.1351533 C26.0774406,18.6494822 25.6566665,20.4650222 24.3429793,21.5023668 C23.0292922,22.5397112 21.1752413,22.5204719 19.8831297,21.4560872 C18.591018,20.3917026 18.2076047,18.5678175 18.9608433,17.0688003 C18.9608433,17.5480168 18.9608433,18.0862138 18.9608433,18.6760188 C18.9042807,19.8651682 19.5030781,20.989152 20.5189823,21.6007527 C21.5348865,22.2123535 22.8030912,22.2123535 23.8189954,21.6007527 C24.8348996,20.989152 25.4336969,19.8651682 25.3771344,18.6760188 L25.3551358,18.6760188 Z M19.7161324,1.94767522 C19.9067879,1.27677207 20.361428,1.61590993 20.9113958,2.31630333 C20.9398042,2.35256508 20.9828239,2.37419126 21.0287223,2.37528383 C20.46015,3.77511333 20.2557307,5.29752002 20.434757,6.79882114 C20.1487738,5.60446606 19.4668137,2.82501013 19.7161324,1.9329301 L19.7161324,1.94767522 Z M19.2688253,9.57090453 C19.2657163,9.54889726 19.2657163,9.5265587 19.2688253,9.50455146 C19.3645534,9.15529067 19.5461118,8.83584512 19.7967944,8.57560863 C20.0827776,8.32494152 20.3980925,8.3470592 20.5300848,8.57560863 C20.6620771,8.80415806 20.5960809,9.04008003 20.2221028,9.19490385 C19.8481247,9.34972767 19.8627905,9.60039478 19.7381311,9.747846 C19.6920771,9.81656215 19.6152234,9.85795647 19.5328098,9.85843443 L19.4521479,9.85843443 C19.3276708,9.82277747 19.2490795,9.69951202 19.2688253,9.57090453 Z M15.008408,11.4509079 L18.0588961,9.62988503 C18.3119756,9.10938585 18.6573896,8.63968049 19.0781698,8.24384333 C19.4080466,7.94646258 19.7167851,7.62620005 20.0021157,7.28541025 C19.4888124,8.68619706 18.9315117,10.0501211 18.22022,10.3966315 C17.5089283,10.7431419 16.0716791,11.3255743 15.7270326,11.465653 C15.4425011,11.6040986 15.1230161,11.652923 14.8104195,11.6057317 C14.8642092,11.5400313 14.9318312,11.4871521 15.008408,11.4509079 Z M14.8690828,12.2323995 C15.2344861,12.2454868 15.5980684,12.1748981 15.9323539,12.0259677 C16.0619805,11.9750413 16.1398999,11.8413246 16.1207068,11.7027372 C16.1015136,11.5641499 15.9902253,11.4569211 15.851692,11.4435353 C16.067586,11.416342 16.279812,11.5162897 16.3972334,11.7004579 C16.5146549,11.884626 16.5163768,12.120242 16.4016598,12.3061251 C16.4016598,12.3061251 16.9002972,12.8885575 18.2275529,12.0259677 C19.7601299,11.0380444 22.7226231,12.3503605 23.6832336,9.36447278 C23.419249,9.31286485 22.8692812,8.57560863 23.8298917,7.66878348 C24.5052716,7.01932427 25.0092773,6.2110876 25.2964725,5.31693613 L25.3404699,5.24321052 C25.5851858,5.56353279 25.7098097,5.96030918 25.6924494,6.36383996 C25.6873176,6.73266051 25.6152514,7.09743987 25.4797951,7.44023404 C25.3035499,7.88569563 25.0275285,8.28430693 24.6731756,8.60509888 C24.3527776,8.90223255 24.1022748,9.26742605 23.9398852,9.67412039 L23.9398852,9.73310089 C24.7171731,13.419382 23.9398852,15.9407982 20.5960809,18.8087249 C19.5034782,17.7249583 19.3714859,15.9186806 19.4081505,15.0266005 L19.4081505,14.8865218 C19.7243012,14.9288778 20.0425536,14.9534911 20.361428,14.9602475 L20.361428,14.6358547 C19.1141968,14.5395207 17.8831185,14.2919735 16.6949759,13.8985985 C15.1770648,13.721657 14.9717434,13.4783625 14.9204131,13.2424405 C15.6023993,13.3851454 16.3063059,13.3851454 16.9882921,13.2424405 L16.9369617,12.9254203 C16.2364464,13.1014688 15.503602,13.1014688 14.8030866,12.9254203 C14.6726742,12.7046031 14.699365,12.4243254 14.8690828,12.2323995 Z M5.70295261,21.5955534 C5.68869583,21.5815034 5.66587903,21.5815034 5.65162228,21.5955534 C5.42378654,21.9048018 5.28891017,22.2732402 5.26297836,22.6572024 C5.25986143,22.7063029 5.25986143,22.7555532 5.26297836,22.8046536 L5.18964931,22.730928 C4.90366604,22.3991627 5.10165445,21.6692791 5.3363074,21.2564156 C5.35028182,21.2420817 5.35028182,21.2191415 5.3363074,21.2048076 C5.32205062,21.1907576 5.29923382,21.1907576 5.28497707,21.2048076 C5.05415448,21.5130243 4.91666568,21.881644 4.88900025,22.2664566 C4.88511426,22.3155294 4.88511426,22.3648351 4.88900025,22.4139079 C4.58835116,22.1116328 4.69101184,21.4628473 5.13098606,20.8656698 C7.55723262,17.5915642 10.8651894,15.0843873 14.6637615,13.6405588 C14.7810879,13.8617357 15.0524054,14.0386772 15.6977009,14.1787559 C15.104017,15.0361726 14.6853022,16.0034228 14.465773,17.0245649 C14.3175521,17.197718 14.1415811,17.3447383 13.9451369,17.4595461 C13.6552809,17.6440255 13.2888017,17.6562699 12.9874037,17.4915447 C12.6860057,17.3268195 12.4969317,17.0109448 12.4932898,16.6660579 C12.4896479,16.321171 12.672009,16.0013315 12.9698606,15.8302098 C13.2073042,15.6969594 13.4752352,15.6283437 13.7471484,15.6311506 L13.4904968,15.0413457 C13.1965652,15.0976351 12.9124426,15.1969948 12.6472128,15.3362481 C12.2286214,15.4986041 11.9040393,15.8404579 11.7621607,16.2683956 C11.6202821,16.6963334 11.6759389,17.1656189 11.9139224,17.5480168 C12.1256295,17.9235524 12.4849567,18.1919869 12.903676,18.2874099 C13.3223954,18.382833 13.7617251,18.2964064 14.1137937,18.049351 L14.2971163,17.9387626 C14.2971163,18.1894297 14.2531188,18.4474694 14.2531188,18.6760188 L14.2164543,18.6760188 C11.7758424,19.9934982 9.69557415,21.8951091 8.15947549,24.212813 C7.9346526,24.5413941 7.80748407,24.9275201 7.79283028,25.3260699 C7.50684703,24.9943046 7.70483544,24.2570484 7.93948836,23.8515575 C7.95346278,23.8372236 7.95346278,23.8142834 7.93948836,23.7999495 C7.70829612,24.107962 7.57076493,24.4766953 7.54351154,24.8615985 C7.54013606,24.9106903 7.54013606,24.9599579 7.54351154,25.0090497 L7.47018249,24.9353241 C7.18419925,24.6035588 7.38218766,23.8663026 7.61684058,23.4608117 C7.630815,23.4464778 7.630815,23.4235376 7.61684058,23.4092037 C7.60258383,23.3951537 7.579767,23.3951537 7.56551025,23.4092037 C7.33468769,23.7174204 7.19719889,24.0860401 7.16953343,24.4708527 C7.16579621,24.5199313 7.16579621,24.5692253 7.16953343,24.6183039 L7.09620439,24.5445783 C6.81022111,24.212813 7.00820953,23.4829294 7.24286247,23.0700659 C7.25298706,23.051743 7.24642097,23.0286373 7.22819665,23.018458 C7.20997234,23.0082786 7.18699097,23.0148802 7.17686633,23.0332031 C6.94829506,23.3420516 6.81333639,23.7107149 6.78822242,24.094852 C6.78484695,24.1439438 6.78484695,24.1932114 6.78822242,24.2423033 L6.71489338,24.1685776 C6.42891011,23.8368123 6.62689852,23.1069287 6.86155147,22.6940652 C6.87552589,22.6797313 6.87552589,22.6567911 6.86155147,22.6424573 C6.6303592,22.9504698 6.49282804,23.319203 6.46557462,23.7041062 C6.46183742,23.7531848 6.46183742,23.8024789 6.46557462,23.8515575 L6.3922456,23.7778318 C6.10626233,23.4460665 6.30425074,22.7161829 6.53890366,22.3033194 C6.5528781,22.2889855 6.5528781,22.2660453 6.53890366,22.2517115 C6.52464691,22.2376615 6.50183011,22.2376615 6.48757333,22.2517115 C6.25937124,22.5607608 6.12445396,22.929311 6.09892943,23.3133604 C6.09516339,23.3624379 6.09516339,23.4117342 6.09892943,23.4608117 L6.02560039,23.387086 C5.73961712,23.0553208 5.93760553,22.3254371 6.17225847,21.9125736 C6.18623289,21.8982398 6.18623289,21.8752995 6.17225847,21.8609657 C6.1580017,21.8469157 6.1351849,21.8469157 6.12092815,21.8609657 C5.89272603,22.1700151 5.75780875,22.5385652 5.73228422,22.9226146 C5.72918706,22.9717157 5.72918706,23.0209648 5.73228422,23.0700659 L5.65895518,22.9963403 C5.29964286,22.730928 5.49763128,22.0010444 5.72495132,21.5955534 L5.70295261,21.5955534 Z M4.00905174,31.3568259 C3.8469619,30.882087 3.91477426,30.3584717 4.19237433,29.9412939 C4.20634878,29.9269599 4.20634878,29.9040197 4.19237433,29.8896858 C4.17811758,29.8756358 4.15530078,29.8756358 4.14104401,29.8896858 C3.91320829,30.1989342 3.77833192,30.5673727 3.7524001,30.9513348 C3.74865226,31.0028741 3.74865226,31.0546194 3.7524001,31.1061587 L3.68640396,31.0398057 C3.37842197,30.7154128 3.5837433,29.9634115 3.81839622,29.5652932 C3.83237064,29.5509593 3.83237064,29.5280191 3.81839622,29.5136852 C3.80413947,29.4996352 3.78132268,29.4996352 3.7670659,29.5136852 C3.53587366,29.8216977 3.39834247,30.1904311 3.37108907,30.5753342 C3.36760786,30.6268829 3.36760786,30.6786093 3.37108907,30.730158 L3.30509295,30.663805 C2.99711097,30.3394122 3.20243228,29.5874109 3.43708522,29.1892926 C3.45105964,29.1749586 3.45105964,29.1520184 3.43708522,29.1376845 C3.42282847,29.1236345 3.40001165,29.1236345 3.38575489,29.1376845 C3.15755277,29.446734 3.02263552,29.815284 2.99711097,30.1993335 C2.99285985,30.2508529 2.99285985,30.3026379 2.99711097,30.3541574 L2.93111482,30.2878041 C2.63046576,29.9634115 2.82845417,29.2114102 3.07044001,28.8132919 C3.0805646,28.7949688 3.0739985,28.7718634 3.05577419,28.7616839 C3.03754988,28.7515046 3.01456851,28.7581062 3.00444386,28.7764291 C2.7758726,29.0852776 2.64091393,29.4539407 2.61579996,29.838078 C2.61151497,29.8895959 2.61151497,29.9413838 2.61579996,29.9929016 L2.54980382,29.9265487 C2.24915475,29.602156 2.44714316,28.8501547 2.689129,28.4520362 C2.69925362,28.4337134 2.69268753,28.4106077 2.67446319,28.4004284 C2.65623885,28.3902489 2.63325748,28.3968505 2.62313286,28.4151733 C2.39493075,28.7242228 2.26001348,29.0927731 2.23448894,29.4768223 C2.23054907,29.5283542 2.23054907,29.5801143 2.23448894,29.6316462 L2.1684928,29.5652932 C1.86784373,29.2409003 2.07316504,28.4962717 2.30781798,28.0907807 C2.3217924,28.0764468 2.3217924,28.0535066 2.30781798,28.0391727 C2.07736228,28.3475919 1.93991537,28.7160991 1.91184115,29.1008217 C1.90817001,29.1523638 1.90817001,29.2041037 1.91184115,29.2556455 L1.84584502,29.1892926 C1.54519595,28.8575272 1.75051726,28.1202711 1.9851702,27.7147801 C1.99914462,27.7004461 1.99914462,27.6775059 1.9851702,27.663172 C1.97091344,27.649122 1.94809663,27.649122 1.93383987,27.663172 C1.70600413,27.9724204 1.57112777,28.3408589 1.54519595,28.724821 C1.54119753,28.7763506 1.54119753,28.8281153 1.54519595,28.8796449 L1.47919981,28.8059192 C1.18588364,28.4741538 1.38387205,27.7368977 1.61852499,27.3314069 C1.63249941,27.317073 1.63249941,27.2941328 1.61852499,27.2797989 C1.60426823,27.2657489 1.58145142,27.2657489 1.56719466,27.2797989 C1.33562991,27.5876054 1.19805585,27.9564537 1.17121783,28.3414479 C1.16742251,28.3905242 1.16742251,28.4398228 1.17121783,28.488899 C0.811905533,28.1202711 1.05389137,27.2724264 1.69185403,26.6236409 C2.87968325,25.4436833 4.2216957,24.4317305 5.68095389,23.6156355 L5.94493843,23.8810477 C5.42235939,24.160957 4.91783454,24.4736812 4.43436017,24.8173631 C4.44861695,24.8314131 4.47143375,24.8314131 4.4856905,24.8173631 C4.4856905,24.8173631 5.21898092,24.3676368 6.06959779,23.9252831 L6.33358235,24.1906953 C5.80886688,24.4709873 5.30192562,24.7836913 4.8156712,25.1270107 C4.80169679,25.1413446 4.80169679,25.1642848 4.8156712,25.1786187 C4.82992796,25.1926687 4.85274475,25.1926687 4.86700153,25.1786187 C4.86700153,25.1786187 5.60029193,24.7288924 6.45824172,24.2939112 L6.72222628,24.5593234 C6.19510627,24.8340757 5.68568696,25.1418728 5.19698221,25.4808937 C5.19698221,25.4808937 5.93027263,25.03854 6.79555532,24.6035588 L7.05953988,24.8689711 C6.53023007,25.1440243 6.0183894,25.4518047 5.52696289,25.7905412 C5.51298847,25.8048751 5.51298847,25.8278153 5.52696289,25.8421493 C5.54121966,25.8561992 5.56403646,25.8561992 5.57829324,25.8421493 C5.57829324,25.8421493 6.31158364,25.3997955 7.18419925,24.9721869 L7.44818378,25.2375991 C6.91884302,25.5098648 6.40698212,25.815195 5.91560681,26.1517969 C5.92986359,26.1658469 5.95268039,26.1658469 5.96693714,26.1517969 C5.96693714,26.1517969 6.70022756,25.7094431 7.58017607,25.2892071 L7.8441606,25.5546193 C7.31244964,25.8241257 6.7981304,26.1269988 6.30425074,26.4614444 C6.31850749,26.4754944 6.34132431,26.4754944 6.35558107,26.4614444 C6.35558107,26.4614444 7.08887149,26.0264632 7.97615289,25.6062273 L8.10081226,25.7315607 C8.14957526,25.7794819 8.20371317,25.8215419 8.26213614,25.8568944 C7.71837416,26.1259272 7.19182756,26.4287902 6.68556174,26.7637196 C6.68556174,26.7637196 7.51417992,26.2992481 8.40879422,25.8716394 C8.71653548,25.9567832 9.04350314,25.9386639 9.34007306,25.8200316 C8.53625731,26.1762314 7.76148022,26.5952962 7.02287534,27.073367 C7.00890092,27.0877009 7.00890092,27.1106411 7.02287534,27.1249751 C7.0371321,27.139025 7.05994892,27.139025 7.07420567,27.1249751 C7.94470185,26.7686937 8.83320669,26.4586192 9.73604988,26.1960323 C9.73604988,26.3066208 9.73604988,26.4172091 9.73604988,26.5277976 C7.89700186,27.2856259 6.21560006,28.3834474 4.77900667,29.7643524 C4.33654715,30.1820953 4.06247693,30.7489461 4.00905174,31.3568259 Z M10.0147002,32.3889845 C8.74610782,33.6570651 6.70756046,36.0752656 6.44357593,38.6998977 C6.05054084,37.9432212 5.85619062,37.0981739 5.8789423,36.2448346 C5.90277535,35.2718294 6.00825474,34.3025831 6.19425719,33.3474177 L6.25292041,33.0156523 L5.95960424,33.1852211 C4.4416931,34.0404385 3.83306204,34.5417726 3.43708522,35.1315776 C3.60562177,34.1240699 3.96937729,33.1596638 4.50768922,32.2931411 C5.13831899,32.7133771 5.97427006,32.5069455 6.86155147,31.6959637 C7.23675126,31.3734583 7.62836759,31.0707751 8.03481612,30.7891385 C7.93565965,30.9029568 7.83039815,31.0112486 7.71950123,31.1135311 C7.73375801,31.1275811 7.75657481,31.1275811 7.77083156,31.1135311 C8.02869382,30.9238832 8.26046885,30.7007708 8.46012455,30.4500007 L8.73144201,30.2730592 C8.83179609,30.2080271 8.93724933,30.1513169 9.04675689,30.1034902 C8.82539154,30.6102622 8.49770831,31.0629488 8.08614644,31.4305513 C8.07217203,31.4448852 8.07217203,31.4678254 8.08614644,31.4821593 C8.1004032,31.4962093 8.12322002,31.4962093 8.13747677,31.4821593 C8.65613457,31.1177362 9.05248953,30.6035447 9.27407691,30.0076468 C9.36279141,29.9806831 9.45352485,29.9609589 9.54539437,29.9486663 C9.39326387,30.6673536 9.00914256,31.315338 8.45279166,31.791807 C8.43881724,31.8061407 8.43881724,31.8290811 8.45279166,31.8434148 C8.46704841,31.8574648 8.48986523,31.8574648 8.50412198,31.8434148 C9.15350653,31.4195505 9.59944135,30.7443621 9.73604988,29.9781567 L9.91203958,29.9781567 C9.90656368,30.8436796 9.50656783,31.658867 8.82676976,32.1899253 C8.84102652,32.2039753 8.86384334,32.2039753 8.87810009,32.1899253 C9.4400458,31.8011339 9.85378357,31.2317677 10.0513648,30.5753342 C10.0513648,30.796511 10.0953622,31.0176878 10.1246938,31.2388649 C9.90281807,31.7205652 9.5859946,32.1519695 9.19341497,32.5069455 C9.18239995,32.5223657 9.18239995,32.5431332 9.19341497,32.5585535 C9.20767173,32.5726035 9.23048855,32.5726035 9.2447453,32.5585535 C9.61324266,32.2885811 9.92479638,31.9477773 10.1613583,31.555885 C10.1613583,31.7180813 10.2053557,31.8802776 10.2273545,32.0351015 L10.0147002,32.3889845 Z M22.1433237,49.3458775 C18.7115245,48.4464248 15.9690184,46.0798324 14.0038001,42.4082965 C15.1688733,45.1395547 17.2042073,47.4037579 19.7894615,48.8445431 C17.047473,47.4156854 14.8456323,45.1242612 13.5198284,42.3198258 C11.3199572,38.1248379 10.183357,32.3668668 10.0366989,25.1933638 C11.7055073,24.3901023 13.4495148,23.7554066 15.2430609,23.2986153 L15.6683693,23.1953994 C17.1251528,25.3209727 19.5217956,26.5982533 22.0891762,26.6173411 C24.6565568,26.6364289 27.0717251,25.394923 28.5596149,23.2912427 C28.6648082,23.3951865 28.7538043,23.5144897 28.8235994,23.6451257 C29.6522176,25.0532851 30.3928409,29.1081944 30.3928409,34.4754196 C30.458376,37.6443135 30.1182726,40.8085236 29.3809002,43.8901814 C27.7326787,46.5447936 25.1517619,48.4791073 22.1506566,49.3090147 L22.1433237,49.3458775 Z M28.4422884,46.6548922 C28.3618686,46.6637806 28.2807222,46.6637806 28.2003026,46.6548922 L28.0609772,46.6548922 L28.4276226,46.2641466 L28.4276226,46.3231271 C28.4495211,46.4197779 28.4569357,46.5191757 28.4496212,46.6180296 L28.4422884,46.6548922 Z M24.4825201,48.866661 C26.3850187,47.7946426 28.0024028,46.2772572 29.1975775,44.4431236 C29.0704539,44.8438691 28.8770928,45.2202204 28.6256108,45.5563806 C27.4895247,46.9240324 26.0805628,48.0367022 24.489853,48.8224255 L24.4825201,48.866661 Z M28.8016007,46.4926959 C28.8016007,46.4189702 28.8016007,46.337872 28.8016007,46.2715191 C28.7781297,46.1448173 28.7781297,46.0148474 28.8016007,45.8881459 L28.9629245,45.6964592 C29.0128775,45.7635092 29.066747,45.8275176 29.1242485,45.8881459 C29.1885365,45.9479518 29.2429869,46.0176272 29.2855723,46.0945776 C29.1487432,46.2548176 28.9849178,46.3895817 28.8016007,46.4926959 Z M29.3369026,45.6595964 C29.2195761,45.5342629 29.1242485,45.4236744 29.15358,45.3646939 C29.231595,45.2258562 29.3025705,45.0831373 29.3662343,44.9370852 C29.4193677,44.9896935 29.4756949,45.0389384 29.5348911,45.0845366 C29.6668832,45.1951249 29.7622111,45.2762233 29.7475452,45.3352038 C29.6667963,45.500295 29.5761916,45.6603257 29.4762278,45.8144202 L29.3369026,45.6595964 Z M29.4982267,46.4926959 C29.4982267,46.4410881 29.4982267,46.3894801 29.4982267,46.337872 C29.6175557,46.199483 29.7254625,46.0515417 29.8208745,45.8955184 C29.8832272,45.9552746 29.9352668,46.0250358 29.9748654,46.10195 C29.8330392,46.2609237 29.6641913,46.3932375 29.4762278,46.4926959 L29.4982267,46.4926959 Z M30.0408614,45.6595964 L29.9821982,45.5932434 C30.0701931,45.4310469 30.1508551,45.2614781 30.2315171,45.0771639 C30.3561764,45.1877524 30.458837,45.2688506 30.4441712,45.3278311 C30.3615659,45.4933911 30.2684916,45.653458 30.1655209,45.8070475 L30.0408614,45.6595964 Z M30.2021854,46.4926959 C30.2021854,46.4410881 30.2021854,46.3894801 30.2021854,46.337872 C30.3215144,46.199483 30.4294212,46.0515417 30.5248332,45.8955184 C30.5865153,45.9558705 30.6384688,46.0255164 30.6788242,46.10195 C30.5345982,46.2613892 30.3632622,46.3937068 30.1728537,46.4926959 L30.2021854,46.4926959 Z M30.8768124,45.8217927 L30.7374873,45.6669689 L30.6788242,45.6006159 C30.766819,45.4384196 30.847481,45.2688506 30.9281428,45.0845366 C31.0601351,45.1951249 31.155463,45.2762233 31.1407971,45.3352038 C31.053998,45.5014745 30.9559975,45.6615863 30.847481,45.8144202 L30.8768124,45.8217927 Z M31.3094539,44.9960657 L31.1407971,44.8412419 L31.0454693,44.7675164 C31.1041326,44.6053201 31.1627958,44.4431236 31.2141261,44.2735548 C31.3167867,44.3472802 31.4487791,44.4504963 31.4561119,44.5094768 C31.4634449,44.5684573 31.3461184,44.8412419 31.2801223,44.9886933 L31.3094539,44.9960657 Z M31.6101029,44.1703387 L31.441446,44.0302601 L31.3241198,43.9344167 C31.3681171,43.7722204 31.4121146,43.6026516 31.4561119,43.4330826 C31.5734384,43.5141808 31.7347624,43.6173966 31.7200966,43.6911223 C31.7054307,43.7648479 31.6321018,44.0155151 31.5807714,44.1629663 L31.6101029,44.1703387 Z M31.8447559,43.3224941 L31.6614332,43.1824154 L31.5367739,43.0939448 C31.5758828,42.9268334 31.6125473,42.7572644 31.6467676,42.585238 C31.7714269,42.6589636 31.9327507,42.7621794 31.9254179,42.8285324 C31.9180848,42.8948856 31.8520889,43.1529253 31.8154242,43.3151216 L31.8447559,43.3224941 Z M32.0354113,42.4599045 L31.8447559,42.3345708 L31.7127635,42.2461001 L31.8007586,41.7373933 C31.9254179,41.811119 32.1014075,41.9069623 32.0867416,41.9806878 C32.0622988,42.1428843 32.0354113,42.3001656 32.0060799,42.4525318 L32.0354113,42.4599045 Z M32.1894023,41.6046871 L31.991414,41.4793536 L31.8520889,41.3982555 C31.8520889,41.2286865 31.9034192,41.0591177 31.9254179,40.8895486 C32.0500772,40.9559016 32.2260668,41.051745 32.218734,41.1254706 C32.2040681,41.287667 32.1747365,41.4424908 32.1527378,41.5973146 L32.1894023,41.6046871 Z M32.3140619,40.7420975 L32.1160733,40.6241365 L31.9694152,40.5356656 C31.9694152,40.3660969 32.0060799,40.1965278 32.0280785,40.0269588 L32.064743,40.0269588 C32.2040681,40.1006845 32.372725,40.1891554 32.3653922,40.2628808 L32.3140619,40.7420975 Z M32.4093895,39.8795077 L32.2040681,39.7615467 L32.0574102,39.6804485 C32.0574102,39.5108795 32.0574102,39.3413107 32.1014075,39.1717417 L32.138072,39.1717417 C32.2773971,39.2380947 32.4460539,39.3265655 32.4387211,39.4002912 C32.4093895,39.5624875 32.3947236,39.7173114 32.3800578,39.872135 L32.4093895,39.8795077 Z M32.4900515,39.0169178 L32.2847302,38.9063296 L32.1307392,38.8252312 L32.1674037,38.3091518 C32.3580591,38.3976227 32.4827184,38.4639757 32.4753856,38.5524466 C32.4680528,38.7293881 32.4680528,38.8547215 32.4680528,39.0021727 L32.4900515,39.0169178 Z M32.5560476,38.1469555 L32.3360605,38.0289945 L32.1894023,37.9552688 C32.1894023,37.7783273 32.1894023,37.6013858 32.1894023,37.4318171 C32.4240553,37.5276604 32.5193832,37.5866409 32.5120501,37.682484 C32.5487146,37.8373078 32.534049,37.9921317 32.526716,38.1322103 L32.5560476,38.1469555 Z M32.607378,37.2696208 C32.5317456,37.2274497 32.4533468,37.1905015 32.372725,37.1590322 L32.2407326,37.1000517 C32.2407326,36.9304827 32.2407326,36.7682864 32.2407326,36.6134625 L32.292063,36.6134625 C32.4313881,36.672443 32.6000449,36.7535412 32.6000449,36.8198944 C32.5902677,36.9624305 32.5829349,37.1074242 32.5780463,37.2548756 L32.607378,37.2696208 Z M32.607378,36.436521 L32.4093895,36.3406777 L32.2407326,36.2595795 C32.2407326,36.082638 32.2407326,35.9130693 32.2407326,35.7435002 L32.2847302,35.7435002 C32.4753856,35.8245984 32.607378,35.8835789 32.607378,35.964677 C32.6220438,36.1195009 32.6147108,36.2669523 32.607378,36.4217761 L32.607378,36.436521 Z M32.607378,35.5665587 L32.3947236,35.4633429 L32.2333998,35.3896172 C32.2333998,35.2053033 32.2333998,35.043107 32.2333998,34.8809104 L32.2847302,34.8809104 C32.4387211,34.9398909 32.607378,35.0136166 32.607378,35.0947147 C32.6367097,35.2495386 32.6367097,35.39699 32.6367097,35.5518135 L32.607378,35.5665587 Z M32.607378,34.7039689 L32.3947236,34.6081258 L32.2260668,34.5344001 L32.2260668,34.4606744 C32.2260668,34.3279682 32.2260668,34.1878896 32.2260668,34.0330657 L32.2847302,34.0330657 C32.4313881,34.0920462 32.607378,34.1583995 32.607378,34.2321249 L32.607378,34.4385568 C32.6440425,34.5196549 32.6440425,34.6007531 32.6440425,34.6818512 L32.607378,34.7039689 Z M32.9006941,36.3480504 C32.9006941,35.610794 32.9006941,34.9398909 32.9006941,34.4606744 C32.9006941,32.4037297 32.7833676,27.0881122 31.6467676,24.1022246 C32.5071615,24.4167872 33.3553342,24.7731277 34.1912853,25.1712461 C34.1802242,28.9272329 33.7572484,32.6705411 32.9300258,36.3333052 L32.9006941,36.3480504 Z M40.8275633,35.1242051 C40.4315866,34.5344001 39.8302885,34.0330657 38.3050445,33.1778486 L38.0117282,33.0082796 L38.0703915,33.3400449 C38.256394,34.2952104 38.3618734,35.2644567 38.3857063,36.2374619 C38.4087837,37.0908343 38.2144149,37.9359628 37.8210727,38.6925252 C37.5644211,36.0973832 35.5185408,33.6496926 34.2499484,32.381612 L34.0299613,32.1235723 C34.0299613,31.9613758 34.0739588,31.7991795 34.0959575,31.6443556 C34.3331398,32.0337118 34.6446706,32.3719848 35.0125705,32.6396517 C35.0265449,32.6253177 35.0265449,32.6023775 35.0125705,32.5880436 C34.6199909,32.2330679 34.3031674,31.8016634 34.0812916,31.319963 C34.0812916,31.0987862 34.1326219,30.8776091 34.1546206,30.6564323 C34.3531499,31.3104209 34.7668618,31.877152 35.3278853,32.263651 C35.342142,32.277701 35.3649589,32.277701 35.3792156,32.263651 C35.39319,32.2493171 35.39319,32.2263769 35.3792156,32.212043 C34.6985475,31.6816987 34.2983286,30.866057 34.293946,30.0002744 L34.4699356,30.0002744 C34.5941977,30.7810899 35.0384095,31.473743 35.6945306,31.909768 C35.708505,31.8954341 35.708505,31.8724939 35.6945306,31.85816 C35.1390273,31.3809718 34.755091,30.7332992 34.6019279,30.0150195 C34.6937918,30.0273435 34.7845228,30.0470672 34.8732454,30.074 C35.0948328,30.6698976 35.4911877,31.1840894 36.0098454,31.5485123 C36.0241021,31.5625623 36.046919,31.5625623 36.0611757,31.5485123 C36.0751501,31.5341786 36.0751501,31.5112384 36.0611757,31.4969045 C35.6524378,31.1284014 35.327325,30.6758107 35.1078981,30.1698431 C35.2172687,30.217954 35.3226999,30.2746526 35.4232132,30.3394122 L35.6945306,30.5163537 C35.8945628,30.7667774 36.1262893,30.9898432 36.3838235,31.1798844 C36.3980802,31.1939343 36.4208972,31.1939343 36.4351539,31.1798844 C36.4491282,31.1655504 36.4491282,31.1426102 36.4351539,31.1282763 C36.3240466,31.0262123 36.2187735,30.9179083 36.1198391,30.8038837 C36.5378145,31.0987862 36.9337913,31.4010612 37.2931036,31.7107089 C38.1730522,32.5143179 39.0090033,32.7207498 39.6469658,32.3078863 C40.2294548,33.1527393 40.6406006,34.1047415 40.856895,35.1094599 L40.8275633,35.1242051 Z M43.1007638,28.488899 C43.1053894,28.4324717 43.1053894,28.3757573 43.1007638,28.3193302 C43.0741086,27.9400334 42.9391631,27.576526 42.7121199,27.2724264 C42.7055703,27.2605736 42.6932289,27.2531339 42.6797445,27.2529103 C42.6662601,27.2526865 42.6536814,27.2597126 42.6467465,27.2713416 C42.6398117,27.2829709 42.6395741,27.2974362 42.6461237,27.309289 C42.8807767,27.7147801 43.086098,28.4594089 42.7854488,28.7838015 L42.7121199,28.8648997 C42.715637,28.8084321 42.715637,28.7517985 42.7121199,28.6953309 C42.6858771,28.3159441 42.5508893,27.9523229 42.3234759,27.6484271 C42.3156165,27.6365743 42.3020648,27.6298374 42.2879255,27.6307542 C42.2737862,27.6316709 42.2612072,27.6401022 42.2549273,27.6528718 C42.2486473,27.6656414 42.2496204,27.6808096 42.2574797,27.6926624 C42.4921327,28.0981532 42.697454,28.842782 42.3968048,29.1671749 L42.3234759,29.2409003 C42.3276799,29.1844564 42.3276799,29.1277754 42.3234759,29.0713316 C42.298212,28.6894807 42.1631966,28.3232236 41.9348319,28.017055 C41.9205752,28.003005 41.8977585,28.003005 41.8835016,28.017055 C42.1181546,28.4225461 42.3234759,29.1671749 42.022827,29.4915675 L41.9494977,29.5652932 C41.9536479,29.5088473 41.9536479,29.4521701 41.9494977,29.3957242 C41.923255,29.0163376 41.7882672,28.6527162 41.5608538,28.3488204 C41.5543044,28.3369675 41.5419631,28.3295281 41.5284787,28.3293045 C41.5149943,28.3290807 41.5024155,28.3361065 41.4954805,28.3477358 C41.4885456,28.3593648 41.4883083,28.3738304 41.4948579,28.3856832 C41.7295106,28.7911742 41.9348319,29.5431755 41.634183,29.8601957 L41.5608538,29.9339214 C41.5659149,29.8775129 41.5659149,29.8207609 41.5608538,29.7643524 C41.534611,29.3849656 41.3996233,29.0213444 41.17221,28.7174486 C41.1582354,28.7317825 41.1582354,28.7547227 41.17221,28.7690563 C41.4068628,29.1745474 41.6121841,29.9265487 41.3042021,30.2435688 L41.2308732,30.3172945 C41.2349448,30.2608455 41.2349448,30.2041745 41.2308732,30.1477255 C41.2046304,29.768339 41.0696427,29.4047175 40.8422292,29.1008217 C40.8279725,29.0867717 40.8051558,29.0867717 40.7908989,29.1008217 C40.7769245,29.1151556 40.7769245,29.1380958 40.7908989,29.1524297 C41.0255519,29.5652932 41.2308732,30.309922 40.930224,30.6269422 L40.856895,30.7006676 C40.8610185,30.6442207 40.8610185,30.5875458 40.856895,30.5310989 C40.8438912,30.1686804 40.7322962,29.8167847 40.5342472,29.5136852 C40.5276979,29.5018323 40.5153565,29.4943929 40.5018721,29.4941693 C40.4883877,29.4939455 40.475809,29.5009716 40.4688739,29.5126006 C40.4619391,29.5242296 40.4617017,29.5386952 40.4682511,29.550548 C40.7029041,29.9634115 40.9082254,30.7154128 40.6002434,31.0250605 L40.5342472,31.0987862 C40.5393582,31.0399175 40.5393582,30.9807132 40.5342472,30.9218447 C40.5122552,30.5474491 40.385123,30.1869973 40.1676021,29.8823134 C40.4452021,30.2994912 40.5130145,30.8231065 40.3509248,31.2978454 C40.2899227,30.6895041 40.0079528,30.1251393 39.558971,29.7127443 C38.1218692,28.334339 36.4404801,27.2390264 34.6019279,26.4835623 L34.6019279,26.1517969 C35.5194167,26.53477 36.4153709,26.9679413 37.2857708,27.4493679 C37.3000275,27.4634179 37.3228444,27.4634179 37.3371011,27.4493679 C36.5799968,26.9679668 35.7854606,26.5488258 34.9612402,26.1960323 C35.2556122,26.3130335 35.579735,26.3311375 35.8851861,26.2476403 C36.7798003,26.6752487 37.6010855,27.1397202 37.6084186,27.1397202 C37.1020339,26.8049854 36.5754996,26.5021296 36.031844,26.2328951 C36.0903049,26.1975984 36.1444489,26.1555335 36.1931681,26.1075614 L36.3178274,25.9822279 C37.1757771,26.4024639 37.9310664,26.8300726 37.9383992,26.837445 C37.4447914,26.5025648 36.9304444,26.1996751 36.3984894,25.9306199 L36.6624738,25.6652078 C37.5130907,26.0854437 38.26838,26.5204249 38.2757128,26.5277976 C38.2899695,26.5418476 38.3127865,26.5418476 38.3270432,26.5277976 C37.8652019,26.1207091 37.3777782,25.7439297 36.8677951,25.3997955 L37.1317798,25.1343833 C37.9823967,25.5619919 38.730353,25.9969731 38.7376858,26.0043456 C38.7519425,26.0183955 38.7747594,26.0183955 38.7890161,26.0043456 C38.297774,25.6653197 37.7859152,25.3575283 37.2564391,25.0827754 L37.5204238,24.8173631 C38.3637076,25.2449717 39.1116639,25.6873255 39.1189967,25.694698 C39.1332537,25.708748 39.1560703,25.708748 39.170327,25.694698 C38.6714063,25.3082158 38.147137,24.9559917 37.6010855,24.6404216 L37.8650702,24.3750094 C38.7083541,24.8099906 39.4489776,25.2523443 39.4563104,25.2597168 C39.4705671,25.2737668 39.493384,25.2737668 39.5076407,25.2597168 C39.5216151,25.245383 39.5216151,25.2224428 39.5076407,25.2081089 C39.0212633,24.8649778 38.5143338,24.552281 37.9897295,24.2717935 L38.2537142,24.0063813 C39.0896653,24.4413624 39.8302885,24.8910887 39.8376213,24.8984613 C39.8518782,24.9125113 39.8746949,24.9125113 39.8889516,24.8984613 C39.3935434,24.5253696 38.874227,24.1854958 38.334376,23.8810477 L38.5983606,23.6156355 C40.0578176,24.4314224 41.3998698,25.4434052 42.5874606,26.6236409 C43.2547548,27.2724264 43.4674089,28.135016 43.1300953,28.4962717 L43.1007638,28.488899 Z M23.8372246,8.96635442 C24.0018932,8.73037545 24.1884993,8.51066799 24.3945253,8.31019638 C24.714973,8.03360686 24.9661755,7.68507263 25.1278157,7.2927828 C25.2257047,7.03805071 25.2826361,6.7692751 25.2964725,6.4965461 C24.9978049,7.04555936 24.6141403,7.54328777 24.1598723,7.97105852 C23.9294164,8.15082899 23.7812599,8.41682492 23.7492297,8.70831474 C23.7492297,8.70831474 23.7492297,8.70831474 23.7492297,8.70831474 C23.7404072,8.8030342 23.7724521,8.897004 23.8372246,8.96635442 Z" id="Shape" fill="#000000"></path>
                    <path d="M8.53615154,20.4408149 C7.70668938,19.7772957 7.0280385,20.9517247 6.63592913,20.6597763 C6.43233386,20.5071669 6.63592913,20.2682999 6.77919987,20.1355961 C6.93100256,19.9807924 7.11869098,19.8563619 7.32966111,19.7706605 L6.89230832,19.372549 C6.66624364,19.494984 6.46280654,19.6471433 6.28906312,19.8237421 C5.88941316,20.2284888 5.53500661,20.8190209 6.11563012,21.2436732 C6.95263285,21.9071924 7.62374316,20.7261282 8.06109593,21.0512526 C8.24206949,21.1905916 8.12142045,21.3830122 7.95552801,21.5555272 C7.76576167,21.7495503 7.52503563,21.8998762 7.25425546,21.9934499 L7.71422995,22.4313725 C7.97269739,22.2866489 8.20630764,22.1101343 8.40796193,21.9071924 C8.85285529,21.4626345 9.13185618,20.8986432 8.53615154,20.4408149 Z" id="Shape" fill="#1A1A18"></path>
                    <path d="M10.0878182,19.1429821 L10.8480423,18.3157141 L11.3505633,18.7128028 L11.9432804,18.0923517 L9.52087145,16.3137255 L8.87661376,17.000358 L9.75280423,20.3921569 L10.3004233,19.8213419 L10.0878182,19.1429821 Z M9.52087145,17.2402657 L10.4035045,18.0013523 L9.89454093,18.5308038 L9.52087145,17.2402657 Z" id="Shape" fill="#1A1A18"></path>
                    <path d="M33.7607307,16.3137255 L31.3655026,18.1428402 L31.9207307,18.7031095 L32.4243097,18.3076253 L33.1925903,19.0821153 L32.9989061,19.7906912 L33.5993273,20.3921569 L34.4321693,16.9811052 L33.7607307,16.3137255 Z M33.3669061,18.4559319 L32.8568711,17.9368588 L33.7542746,17.1788473 L33.3669061,18.4559319 Z" id="Shape" fill="#1A1A18"></path>
                </g>
            </g>
        </g>
    </g>
</svg>